<svg width="52" height="52" viewBox="0 0 52 52" fill="none" xmlns="http://www.w3.org/2000/svg">
<g filter="url(#filter0_d_3167_64328)">
<path fill-rule="evenodd" clip-rule="evenodd" d="M46 26C46 37.0457 37.0457 46 26 46C14.9543 46 6 37.0457 6 26C6 14.9543 14.9543 6 26 6C37.0457 6 46 14.9543 46 26ZM26 44.3789C36.1504 44.3789 44.3789 36.1504 44.3789 26C44.3789 15.8496 36.1504 7.62113 26 7.62113C15.8496 7.62113 7.62113 15.8496 7.62113 26C7.62113 36.1504 15.8496 44.3789 26 44.3789Z" fill="white"/>
</g>
<path d="M44.5 26C44.5 36.2173 36.2173 44.5 26 44.5C15.7827 44.5 7.5 36.2173 7.5 26C7.5 15.7827 15.7827 7.5 26 7.5C36.2173 7.5 44.5 15.7827 44.5 26Z" fill="#005782"/>
<g clip-path="url(#clip0_3167_64328)">
<path d="M15.0489 22.6236L15.1594 22.0032H12.4828V22.0044C12.2019 22.0044 11.9346 22.2291 11.8796 22.5081L10.8463 28.3664H10.8475C10.795 28.6497 10.9802 28.8806 11.2648 28.8818H14.1859L14.2958 28.2627H11.7858L12.2494 25.6323H14.289L14.3958 25.023H12.3562L12.7797 22.6236H15.0489Z" fill="white"/>
<path d="M16.3681 28.9838C15.1885 28.9838 14.5051 27.9245 14.8113 26.1843C15.1236 24.4138 16.1743 23.3947 17.3737 23.3947C18.033 23.3947 18.3565 23.6052 18.5009 23.7545L18.2015 24.2651C18.0626 24.1447 17.8466 24.0058 17.4466 24.0058C16.4663 24.0058 15.9298 24.8947 15.7076 26.1546C15.4792 27.4448 15.7829 28.335 16.6527 28.335C17.0225 28.335 17.2947 28.2146 17.5188 28.0757L17.6416 28.6251C17.3984 28.8146 16.9688 28.9838 16.3681 28.9838Z" fill="white"/>
<path d="M20.9664 23.9552C19.9374 23.9552 19.5336 25.1046 19.3404 26.1941C19.1497 27.2837 19.1774 28.3745 20.1867 28.3745C21.217 28.3745 21.601 27.2738 21.7905 26.1941C21.9819 25.1151 21.9961 23.9552 20.9664 23.9552ZM20.08 28.9838C18.6095 28.9838 18.183 27.7738 18.4614 26.1941C18.7447 24.5842 19.6046 23.3947 21.0553 23.3947C22.535 23.3947 22.9548 24.5842 22.6702 26.1941C22.3918 27.7738 21.5393 28.9838 20.08 28.9838Z" fill="white"/>
<path d="M30.831 25.8244C29.4421 25.9935 28.5803 26.283 28.389 27.3738C28.2513 28.1535 28.6736 28.4732 29.4748 28.4732C29.8131 28.4732 30.1557 28.414 30.3965 28.2942L30.831 25.8244ZM29.3137 28.9838C27.9143 28.9838 27.3717 28.3745 27.5445 27.3942C27.7964 25.9639 29.2094 25.5447 30.9107 25.3744L30.9681 25.0447C31.115 24.2151 30.657 23.9755 29.9662 23.9755C29.447 23.9755 28.9328 24.1651 28.6069 24.3151L28.4877 23.7947C28.8273 23.6243 29.468 23.3947 30.2076 23.3947C31.2082 23.3947 32.0132 23.8249 31.7799 25.1435L31.1693 28.6035C30.7206 28.8344 30.0637 28.9838 29.3137 28.9838Z" fill="white"/>
<path d="M34.8817 28.8838L35.5638 25.0145C35.6527 24.5144 35.5385 23.965 34.6199 23.965C34.1199 23.965 33.8662 24.0342 33.5668 24.1546L32.7316 28.8838H31.8525L32.7526 23.7749C33.2742 23.5453 33.9298 23.3953 34.7885 23.3953C36.2891 23.3953 36.5824 24.2249 36.4472 24.9947L35.7613 28.8838H34.8817Z" fill="white"/>
<path d="M26.5165 26.1237C26.2757 27.4843 25.6726 28.4146 24.5633 28.4146C24.2824 28.4146 24.009 28.3843 23.8262 28.2843L24.5547 24.1545C24.8294 24.0156 25.0714 23.9453 25.4714 23.9453C26.4905 23.9453 26.7245 24.9453 26.5165 26.1237ZM25.7819 23.4249C25.2528 23.4249 24.9331 23.5341 24.6386 23.6743L25.1022 21.0464L24.133 21.6069L22.8997 28.6041C23.183 28.8146 23.712 28.9837 24.4429 28.9837C26.0424 28.9837 27.0974 27.8238 27.4017 26.0941C27.6887 24.4638 27.022 23.4249 25.7819 23.4249Z" fill="white"/>
<path d="M41.1075 23.4952H40.1883L37.8278 25.9941H37.808L38.4099 22.589C39.008 19.2166 35.3684 18.5043 31.5682 19.0864C28.9854 19.4827 26.7039 20.5117 26.7039 20.5117C26.7039 20.5117 29.683 19.4697 32.3041 19.321C35.6141 19.1327 38.208 19.6345 37.4506 23.1409L36.4376 28.8855H37.2975L37.7876 26.1045H37.8074L39.3772 28.8855H40.3778L38.6241 26.0144L41.1075 23.4952Z" fill="white"/>
</g>
<defs>
<filter id="filter0_d_3167_64328" x="0.974504" y="0.974504" width="50.051" height="50.051" filterUnits="userSpaceOnUse" color-interpolation-filters="sRGB">
<feFlood flood-opacity="0" result="BackgroundImageFix"/>
<feColorMatrix in="SourceAlpha" type="matrix" values="0 0 0 0 0 0 0 0 0 0 0 0 0 0 0 0 0 0 127 0" result="hardAlpha"/>
<feOffset/>
<feGaussianBlur stdDeviation="2.51275"/>
<feColorMatrix type="matrix" values="0 0 0 0 0 0 0 0 0 0 0 0 0 0 0 0 0 0 0.25 0"/>
<feBlend mode="normal" in2="BackgroundImageFix" result="effect1_dropShadow_3167_64328"/>
<feBlend mode="normal" in="SourceGraphic" in2="effect1_dropShadow_3167_64328" result="shape"/>
</filter>
<clipPath id="clip0_3167_64328">
<rect width="30.2685" height="10.0813" fill="white" transform="translate(10.9141 18.822)"/>
</clipPath>
</defs>
</svg>
