<svg width="52" height="52" viewBox="0 0 52 52" fill="none" xmlns="http://www.w3.org/2000/svg">
<g filter="url(#filter0_d_3167_64389)">
<path fill-rule="evenodd" clip-rule="evenodd" d="M46 26C46 37.0457 37.0457 46 26 46C14.9543 46 6 37.0457 6 26C6 14.9543 14.9543 6 26 6C37.0457 6 46 14.9543 46 26ZM26 44.3789C36.1504 44.3789 44.3789 36.1504 44.3789 26C44.3789 15.8496 36.1504 7.62113 26 7.62113C15.8496 7.62113 7.62113 15.8496 7.62113 26C7.62113 36.1504 15.8496 44.3789 26 44.3789Z" fill="white"/>
</g>
<path d="M26.1128 44.6129C36.3301 44.6129 44.6128 36.3302 44.6128 26.1129C44.6128 15.8956 36.3301 7.61292 26.1128 7.61292C15.8955 7.61292 7.61279 15.8956 7.61279 26.1129C7.61279 36.3302 15.8955 44.6129 26.1128 44.6129Z" fill="#D1362A"/>
<path d="M14.1404 30.2174C13.7995 30.1995 13.4899 30.1412 13.2073 30.038C12.9247 29.9348 12.6915 29.7868 12.512 29.5984C12.3326 29.41 12.2115 29.1722 12.1576 28.8941C12.1038 28.616 12.1262 28.284 12.2249 27.9072L13.0817 24.6954C13.0952 24.637 13.1266 24.5922 13.1759 24.5563C13.2253 24.5204 13.2791 24.507 13.3374 24.507L14.3647 24.5608C14.423 24.5653 14.4679 24.5832 14.4948 24.6236C14.5217 24.664 14.5307 24.7088 14.5172 24.7671L13.6559 27.97C13.5707 28.3109 13.5752 28.5711 13.6739 28.7506C13.7725 28.93 13.9834 29.0242 14.3108 29.0421C14.6293 29.0601 14.894 28.9883 15.1048 28.8223C15.3157 28.6608 15.4682 28.4096 15.5579 28.0687L16.4192 24.8658C16.4327 24.8075 16.4641 24.7627 16.5134 24.7268C16.5627 24.6909 16.6166 24.6774 16.6659 24.6774L17.6932 24.7312C17.7515 24.7357 17.7963 24.7537 17.8277 24.7941C17.8591 24.8344 17.8636 24.8793 17.8502 24.9376L16.9889 28.1495C16.7825 28.8986 16.4551 29.4414 15.9975 29.7733C15.54 30.1143 14.9209 30.2578 14.1404 30.2174Z" fill="white"/>
<path d="M18.5006 30.0246C18.4468 30.0201 18.4064 29.9977 18.375 29.9573C18.3436 29.9169 18.3392 29.8676 18.3526 29.8182L19.7208 24.6999C19.7343 24.6416 19.7657 24.5967 19.815 24.5608C19.8643 24.5249 19.9182 24.5115 19.9675 24.5115L22.3001 24.6326C22.7308 24.655 23.0807 24.7358 23.3588 24.8793C23.6324 25.0229 23.8253 25.2158 23.933 25.458C24.0407 25.7002 24.0496 25.9828 23.9644 26.3013C23.9106 26.4987 23.8298 26.6692 23.7177 26.8127C23.6055 26.9518 23.4889 27.0639 23.3633 27.1491C23.2377 27.2344 23.1211 27.2927 23.0134 27.3286C23.1928 27.4407 23.3364 27.6067 23.4351 27.8265C23.5338 28.0463 23.5472 28.302 23.4665 28.5891C23.3723 28.9345 23.2287 29.2306 23.0313 29.4728C22.834 29.715 22.5783 29.8945 22.2598 30.0156C21.9413 30.1367 21.5555 30.1816 21.0979 30.1591L18.5006 30.0246ZM20.0034 29.0646L21.1114 29.1229C21.3357 29.1364 21.5241 29.0781 21.6811 28.9525C21.8381 28.8268 21.9368 28.6833 21.9817 28.5128C22.0355 28.3289 22.022 28.1719 21.9458 28.0418C21.8695 27.9117 21.708 27.84 21.4658 27.8265L20.3533 27.7682L20.0034 29.0646ZM20.6224 26.7678L21.6407 26.8217C21.8605 26.8351 22.04 26.7858 22.1835 26.6781C22.3271 26.5705 22.4213 26.4359 22.4706 26.2654C22.5155 26.0995 22.5065 25.9559 22.4347 25.8438C22.3674 25.7316 22.2239 25.6688 22.0041 25.6598L20.9365 25.606L20.6224 26.7678Z" fill="white"/>
<path d="M23.5562 30.1636L27.6697 24.7491H28.0824L29.6838 30.1636H28.2259L27.3287 26.5211L24.6642 30.1636H23.5562Z" fill="white"/>
<path d="M25.3281 29.0331H28.0555L27.8267 28.2212H25.9965L25.3281 29.0331Z" fill="white"/>
<path d="M35.2955 30.0021C35.8338 29.7913 36.5111 29.3337 36.2061 28.4321C36.1926 28.3917 36.1747 28.3469 36.1523 28.311L33.38 23.1747L31.6575 30.1681H34.2951C34.3893 30.1681 34.4791 30.1636 34.5733 30.1591C34.8155 30.1322 35.0667 30.0918 35.2955 30.0021Z" fill="white"/>
<path d="M36.2331 21.9724C35.6948 22.1833 35.0175 22.6408 35.3225 23.5425C35.336 23.5828 35.3539 23.6277 35.3763 23.6636L38.1486 28.7999L39.8711 21.8065H37.2335C37.1393 21.8065 37.0495 21.8109 36.9553 21.8154C36.7131 21.8379 36.4619 21.8782 36.2331 21.9724Z" fill="white"/>
<defs>
<filter id="filter0_d_3167_64389" x="0.974504" y="0.974504" width="50.051" height="50.051" filterUnits="userSpaceOnUse" color-interpolation-filters="sRGB">
<feFlood flood-opacity="0" result="BackgroundImageFix"/>
<feColorMatrix in="SourceAlpha" type="matrix" values="0 0 0 0 0 0 0 0 0 0 0 0 0 0 0 0 0 0 127 0" result="hardAlpha"/>
<feOffset/>
<feGaussianBlur stdDeviation="2.51275"/>
<feColorMatrix type="matrix" values="0 0 0 0 0 0 0 0 0 0 0 0 0 0 0 0 0 0 0.25 0"/>
<feBlend mode="normal" in2="BackgroundImageFix" result="effect1_dropShadow_3167_64389"/>
<feBlend mode="normal" in="SourceGraphic" in2="effect1_dropShadow_3167_64389" result="shape"/>
</filter>
</defs>
</svg>
