<svg width="45" height="45" viewBox="0 0 45 45" fill="none" xmlns="http://www.w3.org/2000/svg">
<g filter="url(#filter0_d_429_592)">
<path fill-rule="evenodd" clip-rule="evenodd" d="M42.6743 22.5C42.6743 33.5457 33.72 42.5 22.6743 42.5C11.6286 42.5 2.67432 33.5457 2.67432 22.5C2.67432 11.4543 11.6286 2.5 22.6743 2.5C33.72 2.5 42.6743 11.4543 42.6743 22.5ZM22.6743 40.4487C32.5871 40.4487 40.623 32.4128 40.623 22.5C40.623 12.5872 32.5871 4.55128 22.6743 4.55128C12.7615 4.55128 4.7256 12.5872 4.7256 22.5C4.7256 32.4128 12.7615 40.4487 22.6743 40.4487Z" fill="white"/>
</g>
<path d="M41.1746 22.5C41.1746 32.7173 32.8918 41 22.6746 41C12.4573 41 4.17456 32.7173 4.17456 22.5C4.17456 12.2827 12.4573 4 22.6746 4C32.8918 4 41.1746 12.2827 41.1746 22.5Z" fill="#016FD0"/>
<path d="M14.3035 28.1409V23.7017H18.9922L19.4952 24.3591L20.0149 23.7017H37.0337V27.8348C37.0337 27.8348 36.5886 28.1365 36.0739 28.1409H26.6502L26.083 27.4411V28.1409H24.2245V26.9464C24.2245 26.9464 23.9706 27.1131 23.4217 27.1131H22.7891V28.1409H19.9751L19.4728 27.4694L18.9627 28.1409H14.3035Z" fill="white"/>
<path d="M37.0337 23.7017V27.8348C37.3858 27.571 37.5 27.4 37.6 27.2C37.7806 26.6441 37.7462 26.2621 37.4 25.5508V23.7017H37.0337Z" fill="white"/>
<path d="M8.82837 20.3558L9.88569 17.8846H11.7142L12.3142 19.2689V17.8846H14.5873L14.9445 18.8851L15.2908 17.8846H25.4943V18.3876C25.4943 18.3876 26.0307 17.8846 26.9122 17.8846L30.2229 17.8962L30.8125 19.2623V17.8846H32.7147L33.2383 18.6694V17.8846H35.1579V22.3239H33.2383L32.7365 21.5366V22.3239H29.9418L29.6608 21.6241H28.9094L28.633 22.3239H26.7377C25.9792 22.3239 25.4943 21.8312 25.4943 21.8312V22.3239H22.6366L22.0695 21.6241V22.3239H11.4433L11.1625 21.6241H10.4135L10.1347 22.3239H8.82837V20.3558Z" fill="white"/>
<path d="M8.82837 22.3239V20.3558L8 22.3239H8.82837Z" fill="white"/>
<path d="M10.2598 18.4321L8.83374 21.7561H9.7622L10.0253 21.0905H11.555L11.8168 21.7561H12.7657L11.341 18.4321H10.2598ZM10.7875 19.2057L11.2537 20.3688H10.3198L10.7875 19.2057Z" fill="#016FD0"/>
<path d="M12.864 21.7553V18.4313L14.1834 18.4362L14.9508 20.5793L15.6998 18.4313H17.0087V21.7553H16.1797V19.306L15.3011 21.7553H14.5741L13.6929 19.306V21.7553H12.864Z" fill="#016FD0"/>
<path d="M17.5754 21.7553V18.4313H20.2804V19.1748H18.4131V19.7434H20.2367V20.4432H18.4131V21.0336H20.2804V21.7553H17.5754Z" fill="#016FD0"/>
<path d="M20.76 18.4321V21.7561H21.5889V20.5752H21.938L22.9319 21.7561H23.9449L22.8542 20.5315C23.3018 20.4936 23.7635 20.1085 23.7635 19.5105C23.7635 18.811 23.2159 18.4321 22.6047 18.4321H20.76ZM21.5889 19.1757H22.5365C22.7638 19.1757 22.9291 19.3539 22.9291 19.5255C22.9291 19.7464 22.7149 19.8754 22.5488 19.8754H21.5889V19.1757Z" fill="#016FD0"/>
<path d="M24.9484 21.7553H24.1021V18.4313H24.9484V21.7553Z" fill="#016FD0"/>
<path d="M26.9556 21.7553H26.7729C25.889 21.7553 25.3523 21.0571 25.3523 20.1069C25.3523 19.1333 25.883 18.4313 26.9993 18.4313H27.9154V19.2185H26.9658C26.5126 19.2185 26.1921 19.573 26.1921 20.1151C26.1921 20.7589 26.5586 21.0292 27.0865 21.0292H27.3046L26.9556 21.7553Z" fill="#016FD0"/>
<path d="M28.7593 18.4321L27.3333 21.7561H28.2617L28.5248 21.0905H30.0546L30.3163 21.7561H31.2652L29.8405 18.4321H28.7593ZM29.287 19.2057L29.7532 20.3688H28.8193L29.287 19.2057Z" fill="#016FD0"/>
<path d="M31.3618 21.7553V18.4313H32.4157L33.7614 20.5197V18.4313H34.5903V21.7553H33.5705L32.1907 19.6122V21.7553H31.3618Z" fill="#016FD0"/>
<path d="M14.8706 27.5722V24.2482H17.5755V24.9917H15.7083V25.5603H17.5319V26.2601H15.7083V26.8505H17.5755V27.5722H14.8706Z" fill="#016FD0"/>
<path d="M28.1252 27.5722V24.2482H30.8302V24.9917H28.9629V25.5603H30.7778V26.2601H28.9629V26.8505H30.8302V27.5722H28.1252Z" fill="#016FD0"/>
<path d="M17.6803 27.5722L18.9973 25.9307L17.6489 24.2482H18.6933L19.4963 25.2883L20.3021 24.2482H21.3055L19.9748 25.9102L21.2943 27.5722H20.2501L19.4704 26.5484L18.7096 27.5722H17.6803Z" fill="#016FD0"/>
<path d="M21.3933 24.2489V27.5729H22.2441V26.5232H23.1166C23.8549 26.5232 24.4146 26.1305 24.4146 25.3669C24.4146 24.7343 23.9756 24.2489 23.2243 24.2489H21.3933ZM22.2441 25.0006H23.163C23.4015 25.0006 23.572 25.1472 23.572 25.3833C23.572 25.6052 23.4024 25.766 23.1602 25.766H22.2441V25.0006Z" fill="#016FD0"/>
<path d="M24.7742 24.2482V27.5722H25.6031V26.3913H25.9521L26.946 27.5722H27.959L26.8683 26.3475C27.3159 26.3097 27.7777 25.9245 27.7777 25.3266C27.7777 24.6271 27.23 24.2482 26.6188 24.2482H24.7742ZM25.6031 24.9917H26.5506C26.778 24.9917 26.9433 25.1699 26.9433 25.3416C26.9433 25.5624 26.7291 25.6915 26.5629 25.6915H25.6031V24.9917Z" fill="#016FD0"/>
<path d="M31.2141 27.5722V26.8505H32.8731C33.1186 26.8505 33.2248 26.7175 33.2248 26.5717C33.2248 26.4319 33.1189 26.2907 32.8731 26.2907H32.1234C31.4718 26.2907 31.1089 25.8927 31.1089 25.2951C31.1089 24.7621 31.4412 24.2482 32.4095 24.2482H34.0238L33.6748 24.9961H32.2787C32.0118 24.9961 31.9296 25.1365 31.9296 25.2705C31.9296 25.4083 32.0312 25.5603 32.235 25.5603H33.0203C33.7468 25.5603 34.062 25.9733 34.062 26.5143C34.062 27.0958 33.7107 27.5722 32.9808 27.5722H31.2141Z" fill="#016FD0"/>
<path d="M34.2561 27.5722V26.8505H35.9151C36.1606 26.8505 36.2668 26.7175 36.2668 26.5717C36.2668 26.4319 36.1609 26.2907 35.9151 26.2907H35.1654C34.5138 26.2907 34.1509 25.8927 34.1509 25.2951C34.1509 24.7621 34.4832 24.2482 35.4515 24.2482H37.0658L36.7167 24.9961H35.3207C35.0538 24.9961 34.9716 25.1365 34.9716 25.2705C34.9716 25.4083 35.0732 25.5603 35.277 25.5603H36.0623C36.7887 25.5603 37.1039 25.9733 37.1039 26.5143C37.1039 27.0958 36.7527 27.5722 36.0228 27.5722H34.2561Z" fill="#016FD0"/>
<defs>
<filter id="filter0_d_429_592" x="0.623034" y="0.448718" width="44.1026" height="44.1026" filterUnits="userSpaceOnUse" color-interpolation-filters="sRGB">
<feFlood flood-opacity="0" result="BackgroundImageFix"/>
<feColorMatrix in="SourceAlpha" type="matrix" values="0 0 0 0 0 0 0 0 0 0 0 0 0 0 0 0 0 0 127 0" result="hardAlpha"/>
<feOffset/>
<feGaussianBlur stdDeviation="1.02564"/>
<feColorMatrix type="matrix" values="0 0 0 0 0 0 0 0 0 0 0 0 0 0 0 0 0 0 0.25 0"/>
<feBlend mode="normal" in2="BackgroundImageFix" result="effect1_dropShadow_429_592"/>
<feBlend mode="normal" in="SourceGraphic" in2="effect1_dropShadow_429_592" result="shape"/>
</filter>
</defs>
</svg>
