<svg width="45" height="45" viewBox="0 0 45 45" fill="none" xmlns="http://www.w3.org/2000/svg">
<g filter="url(#filter0_d_429_566)">
<path fill-rule="evenodd" clip-rule="evenodd" d="M42.6743 22.5C42.6743 33.5457 33.72 42.5 22.6743 42.5C11.6286 42.5 2.67432 33.5457 2.67432 22.5C2.67432 11.4543 11.6286 2.5 22.6743 2.5C33.72 2.5 42.6743 11.4543 42.6743 22.5ZM22.6743 40.4487C32.5871 40.4487 40.623 32.4128 40.623 22.5C40.623 12.5872 32.5871 4.55128 22.6743 4.55128C12.7615 4.55128 4.7256 12.5872 4.7256 22.5C4.7256 32.4128 12.7615 40.4487 22.6743 40.4487Z" fill="white"/>
</g>
<path d="M40.6794 22.5C40.6794 32.4439 32.6183 40.505 22.6744 40.505C12.7305 40.505 4.66943 32.4439 4.66943 22.5C4.66943 12.5561 12.7305 4.495 22.6744 4.495C32.6183 4.495 40.6794 12.5561 40.6794 22.5Z" fill="#E6E6E6"/>
<path d="M25.4785 17.0829H19.7017V27.1138H25.4785V17.0829Z" fill="#FF5F00"/>
<path d="M20.0645 22.1011C20.0645 20.0644 21.0536 18.254 22.5753 17.0828C21.4574 16.2342 20.0469 15.7194 18.5076 15.7194C14.8554 15.7194 11.9055 18.5708 11.9055 22.1011C11.9055 25.6258 14.8554 28.4829 18.5076 28.4829C20.0469 28.4829 21.4574 27.9681 22.5812 27.1194C21.0536 25.9653 20.0645 24.1379 20.0645 22.1011Z" fill="#EB001B"/>
<path d="M33.2682 22.101C33.2682 25.6257 30.3184 28.4828 26.6661 28.4828C25.1268 28.4828 23.7163 27.9679 22.5925 27.1193C24.1318 25.9482 25.1034 24.1434 25.1034 22.101C25.1034 20.0643 24.1143 18.2538 22.5925 17.0827C23.7163 16.2341 25.1268 15.7192 26.6661 15.7192C30.3184 15.7192 33.2682 18.5933 33.2682 22.101Z" fill="#F79E1B"/>
<defs>
<filter id="filter0_d_429_566" x="0.623034" y="0.448718" width="44.1026" height="44.1026" filterUnits="userSpaceOnUse" color-interpolation-filters="sRGB">
<feFlood flood-opacity="0" result="BackgroundImageFix"/>
<feColorMatrix in="SourceAlpha" type="matrix" values="0 0 0 0 0 0 0 0 0 0 0 0 0 0 0 0 0 0 127 0" result="hardAlpha"/>
<feOffset/>
<feGaussianBlur stdDeviation="1.02564"/>
<feColorMatrix type="matrix" values="0 0 0 0 0 0 0 0 0 0 0 0 0 0 0 0 0 0 0.25 0"/>
<feBlend mode="normal" in2="BackgroundImageFix" result="effect1_dropShadow_429_566"/>
<feBlend mode="normal" in="SourceGraphic" in2="effect1_dropShadow_429_566" result="shape"/>
</filter>
</defs>
</svg>
