<svg width="45" height="46" viewBox="0 0 45 46" fill="none" xmlns="http://www.w3.org/2000/svg">
<g filter="url(#filter0_d_623_70)">
<path fill-rule="evenodd" clip-rule="evenodd" d="M42.1743 23C42.1743 34.0457 33.22 43 22.1743 43C11.1286 43 2.17432 34.0457 2.17432 23C2.17432 11.9543 11.1286 3 22.1743 3C33.22 3 42.1743 11.9543 42.1743 23ZM22.1743 40.9487C32.0871 40.9487 40.123 32.9128 40.123 23C40.123 13.0872 32.0871 5.05128 22.1743 5.05128C12.2615 5.05128 4.2256 13.0872 4.2256 23C4.2256 32.9128 12.2615 40.9487 22.1743 40.9487Z" fill="white"/>
</g>
<path d="M40.6743 23C40.6743 33.2173 32.3916 41.5 22.1743 41.5C11.957 41.5 3.67432 33.2173 3.67432 23C3.67432 12.7827 11.957 4.5 22.1743 4.5C32.3916 4.5 40.6743 12.7827 40.6743 23Z" fill="#00415E"/>
<path d="M17.2084 25.7216C16.7876 26.3058 16.2721 26.7688 15.6603 27.1056C15.1676 27.3758 14.6472 27.5459 14.0958 27.6108C13.1937 27.7178 12.3291 27.567 11.5249 27.1162C10.2149 26.3847 9.3829 25.2392 9.09741 23.678C8.81193 22.1256 9.16103 20.724 10.1137 19.5154C10.8217 18.6173 11.7288 18.0612 12.812 17.8753C14.2916 17.6209 15.5983 18.0402 16.7044 19.1295C17.4058 19.8206 17.8496 20.6802 18.0551 21.68C18.0567 21.6871 18.06 21.6923 18.0616 21.6993C18.0584 21.7292 18.0355 21.7362 18.016 21.7467C17.5282 22.0326 17.2019 22.4642 17.0176 23.0237C16.9311 23.2868 16.8838 23.5587 16.8659 23.8394C16.8349 24.3236 16.8838 24.7954 17.0274 25.2568C17.0698 25.3918 17.1236 25.5216 17.1905 25.6462C17.2003 25.6672 17.2182 25.69 17.2084 25.7216Z" fill="#ED312A"/>
<path d="M25.8608 21.5553C25.8837 21.5553 25.9016 21.5553 25.9196 21.5553C26.3356 21.5553 26.7516 21.5571 27.1675 21.5536C27.2165 21.5536 27.2312 21.5711 27.241 21.6202C27.4922 22.7447 27.8185 23.8428 28.2263 24.9128C28.2328 24.9286 28.2393 24.9444 28.2491 24.9654C28.3894 24.6058 28.5167 24.2462 28.6341 23.8831C28.8772 23.1341 29.0909 22.3728 29.2589 21.601C29.2655 21.5729 29.2736 21.5571 29.3062 21.5571C29.7467 21.5589 30.1872 21.5571 30.6358 21.5571C30.6244 21.608 30.6146 21.6553 30.6015 21.7027C30.2133 23.1779 29.7402 24.6199 29.1333 26.0074C29.0338 26.2372 28.9229 26.4617 28.8185 26.688C28.8021 26.7231 28.7826 26.7389 28.7451 26.7389C28.4155 26.7371 28.0844 26.7371 27.7548 26.7389C27.714 26.7389 27.6945 26.7248 27.6765 26.6862C27.2116 25.732 26.8315 24.7374 26.4938 23.7235C26.2638 23.0323 26.0566 22.3324 25.8772 21.6238C25.8706 21.6027 25.8657 21.5817 25.8608 21.5553Z" fill="#FEFEFE"/>
<path d="M24.9356 22.7762C24.7414 22.7113 24.5473 22.678 24.3483 22.6815C24.1134 22.6868 23.8931 22.7429 23.6941 22.8815C23.6566 22.9078 23.6403 22.9359 23.6403 22.9867C23.6419 24.2094 23.6403 25.4338 23.6435 26.6564C23.6435 26.7213 23.6321 26.7389 23.5685 26.7389C23.1574 26.7354 22.7447 26.7354 22.3336 26.7389C22.2846 26.7389 22.2732 26.7248 22.2732 26.674C22.2748 25.1478 22.2748 23.6217 22.2732 22.0956C22.2732 22.0518 22.2862 22.029 22.3189 22.0062C22.7071 21.7325 23.1313 21.5694 23.5897 21.501C24.0938 21.4255 24.593 21.4553 25.0873 21.5834C25.1183 21.5922 25.1444 21.5974 25.1346 21.6448C25.0677 22.0184 25.0024 22.3938 24.9356 22.7762Z" fill="#FEFEFE"/>
<path d="M13.5794 24.8217C13.6447 24.6603 13.7067 24.5095 13.767 24.3569C14.3315 22.9413 14.8535 21.5081 15.3315 20.0574C15.3413 20.0276 15.3478 20.0031 15.387 20.0048C15.8911 20.0066 16.3935 20.0066 16.8976 20.0066C16.9041 20.0066 16.909 20.0083 16.9221 20.0101C16.8552 20.2083 16.7899 20.4065 16.7214 20.6012C16.1341 22.2764 15.4734 23.9166 14.7507 25.5286C14.5762 25.9163 14.3951 26.3005 14.2189 26.6881C14.201 26.7267 14.1798 26.739 14.139 26.739C13.7654 26.7372 13.3935 26.7372 13.0199 26.739C12.9758 26.739 12.9563 26.7232 12.9367 26.6829C11.997 24.6866 11.152 22.6466 10.4195 20.5521C10.3624 20.389 10.3086 20.2223 10.2531 20.0592C10.2401 20.0206 10.2352 20.0031 10.2858 20.0031C10.7784 20.0048 11.2727 20.0048 11.7654 20.0031C11.8143 20.0031 11.8176 20.0329 11.8274 20.0644C12.1063 20.9135 12.4032 21.7555 12.7132 22.5939C12.9807 23.3184 13.2581 24.0359 13.5484 24.7498C13.5566 24.7691 13.5664 24.7901 13.5794 24.8217Z" fill="#FEFEFE"/>
<path fill-rule="evenodd" clip-rule="evenodd" d="M16.9069 24.8479C16.9591 25.1566 17.0635 25.4478 17.2087 25.7214C17.2098 25.7232 17.2111 25.7248 17.2125 25.7265C17.2151 25.7297 17.218 25.7332 17.2202 25.739C17.5187 26.2494 17.9494 26.5634 18.4812 26.7318C18.8645 26.8529 19.2577 26.8827 19.6541 26.8634C20.1223 26.8406 20.5791 26.7546 21.0244 26.595C21.062 26.581 21.0734 26.5634 21.0669 26.5196C21.054 26.4219 21.043 26.3249 21.0319 26.2278C21.0247 26.1644 21.0175 26.1009 21.0098 26.0372C20.9853 25.8249 20.9608 25.6127 20.9347 25.3969C20.5856 25.4987 20.2365 25.5706 19.8809 25.6022C19.5889 25.6285 19.2985 25.6302 19.0146 25.5425C18.5676 25.4039 18.2658 25.1092 18.1533 24.6111C18.1337 24.5181 18.1353 24.5181 18.2234 24.5181C19.1973 24.5181 20.1729 24.5181 21.1468 24.5199C21.2023 24.5199 21.2153 24.5006 21.2202 24.4479C21.222 24.4258 21.2239 24.4037 21.2258 24.3818C21.234 24.2855 21.242 24.1907 21.2447 24.0936C21.2545 23.634 21.2023 23.1849 21.0457 22.7552C20.8189 22.1307 20.4208 21.6922 19.8058 21.5238C19.2071 21.3589 18.6231 21.415 18.0603 21.6974C17.491 22.0149 17.1304 22.5148 16.9542 23.1709C16.8058 23.7235 16.8107 24.2848 16.9069 24.8479ZM18.8667 23.49C18.9416 23.4901 19.0166 23.4902 19.0917 23.4902C19.3919 23.4902 19.6937 23.4902 19.9955 23.4919C20.0346 23.4919 20.0493 23.4832 20.0412 23.4376C20.0167 23.2937 19.9792 23.1534 19.9204 23.0201C19.6203 22.3377 18.8617 22.364 18.524 22.664C18.2989 22.8639 18.1928 23.1341 18.1455 23.4358C18.139 23.4814 18.1488 23.4919 18.1928 23.4919C18.4179 23.4893 18.6421 23.4896 18.8667 23.49Z" fill="#FEFEFE"/>
<path fill-rule="evenodd" clip-rule="evenodd" d="M32.4819 24.5167C32.9697 24.5184 33.4558 24.5184 33.9436 24.5184H35.4248C35.4705 24.5184 35.4868 24.5062 35.4917 24.4553C35.4944 24.4199 35.4975 24.3848 35.5007 24.3497C35.5053 24.2979 35.51 24.2462 35.5129 24.1939C35.539 23.6835 35.4819 23.1853 35.3009 22.7082C35.0953 22.1696 34.7544 21.7749 34.2372 21.575C33.8587 21.4294 33.4656 21.4031 33.0692 21.4645C32.2078 21.596 31.6026 22.0925 31.291 22.9713C31.0643 23.6133 31.0691 24.2746 31.1997 24.9377C31.2877 25.385 31.4688 25.7867 31.7706 26.1147C32.167 26.5462 32.663 26.7515 33.2111 26.8322C33.5227 26.8795 33.8359 26.876 34.1491 26.8462C34.5358 26.8094 34.9142 26.7304 35.2829 26.5989C35.3351 26.5796 35.3449 26.5533 35.3384 26.5006C35.296 26.1464 35.2552 25.7922 35.2144 25.4379L35.2144 25.4376C35.2111 25.4025 35.2013 25.3955 35.1687 25.406C34.8376 25.5025 34.5031 25.5709 34.1605 25.6008C33.8522 25.6271 33.5455 25.6288 33.247 25.5271C32.8114 25.3797 32.5243 25.0798 32.4215 24.5904C32.4085 24.5237 32.4281 24.5167 32.4819 24.5167ZM32.4621 23.4903H33.3609C33.436 23.4903 33.511 23.4902 33.586 23.4901C33.8106 23.4898 34.0347 23.4895 34.2598 23.4921C34.3104 23.4921 34.3218 23.4781 34.3104 23.4272C34.3061 23.4081 34.3028 23.3883 34.2994 23.3685C34.2951 23.3428 34.2907 23.3169 34.2843 23.2921C34.1782 22.8553 33.9189 22.5063 33.4474 22.4712C33.1407 22.4484 32.8715 22.5378 32.6692 22.801C32.5224 22.9904 32.4523 23.2132 32.4148 23.4517C32.4079 23.4944 32.4298 23.4927 32.4505 23.491C32.4545 23.4907 32.4584 23.4903 32.4621 23.4903Z" fill="#FEFEFE"/>
<defs>
<filter id="filter0_d_623_70" x="0.123034" y="0.948718" width="44.1026" height="44.1026" filterUnits="userSpaceOnUse" color-interpolation-filters="sRGB">
<feFlood flood-opacity="0" result="BackgroundImageFix"/>
<feColorMatrix in="SourceAlpha" type="matrix" values="0 0 0 0 0 0 0 0 0 0 0 0 0 0 0 0 0 0 127 0" result="hardAlpha"/>
<feOffset/>
<feGaussianBlur stdDeviation="1.02564"/>
<feColorMatrix type="matrix" values="0 0 0 0 0 0 0 0 0 0 0 0 0 0 0 0 0 0 0.25 0"/>
<feBlend mode="normal" in2="BackgroundImageFix" result="effect1_dropShadow_623_70"/>
<feBlend mode="normal" in="SourceGraphic" in2="effect1_dropShadow_623_70" result="shape"/>
</filter>
</defs>
</svg>
