<svg width="45" height="45" viewBox="0 0 45 45" fill="none" xmlns="http://www.w3.org/2000/svg">
<g filter="url(#filter0_d_429_582)">
<path fill-rule="evenodd" clip-rule="evenodd" d="M42.6743 22.5C42.6743 33.5457 33.72 42.5 22.6743 42.5C11.6286 42.5 2.67432 33.5457 2.67432 22.5C2.67432 11.4543 11.6286 2.5 22.6743 2.5C33.72 2.5 42.6743 11.4543 42.6743 22.5ZM22.6743 40.4487C32.5871 40.4487 40.623 32.4128 40.623 22.5C40.623 12.5872 32.5871 4.55128 22.6743 4.55128C12.7615 4.55128 4.7256 12.5872 4.7256 22.5C4.7256 32.4128 12.7615 40.4487 22.6743 40.4487Z" fill="white"/>
</g>
<path d="M41.1743 22.5C41.1743 32.7173 32.8916 41 22.6743 41C12.457 41 4.17432 32.7173 4.17432 22.5C4.17432 12.2827 12.457 4 22.6743 4C32.8916 4 41.1743 12.2827 41.1743 22.5Z" fill="#222F5A"/>
<path d="M23.1546 20.9179C23.1385 22.1404 24.2737 22.8224 25.1289 23.2259C26.0078 23.6421 26.3031 23.9086 26.2992 24.2809C26.2923 24.8505 25.5985 25.0999 24.9484 25.1118C23.8155 25.1289 23.1561 24.814 22.6321 24.5757L22.2236 26.437C22.7499 26.6723 23.7229 26.8785 24.7326 26.8875C27.1039 26.8875 28.6522 25.7491 28.6606 23.9838C28.6698 21.7436 25.4769 21.62 25.4983 20.6186C25.506 20.3148 25.8043 19.991 26.456 19.9083C27.2189 19.8381 27.9872 19.9695 28.6797 20.2888L29.076 18.4893C28.4011 18.2425 27.6864 18.1149 26.9655 18.1125C24.7357 18.1125 23.1668 19.2666 23.1546 20.9179ZM32.8869 18.2674C32.6811 18.2658 32.4797 18.3243 32.3085 18.4354C32.1373 18.5465 32.0044 18.7051 31.9269 18.8906L28.5428 26.7557H30.9141L31.3853 25.49H34.2791L34.5521 26.7557H36.6351L34.8138 18.2682H32.8869V18.2674ZM33.2181 20.5613L33.9012 23.7486H32.0309L33.2189 20.5613H33.2181ZM20.2838 18.2674L18.4173 26.755H20.6739L22.5388 18.2674H20.2838V18.2674ZM16.9463 18.2674L14.598 24.0449L13.6479 19.1311C13.534 18.5846 13.0964 18.2674 12.6076 18.2674H8.76839L8.71484 18.5138C9.50273 18.6806 10.3977 18.9486 10.9408 19.236C11.2728 19.4117 11.3676 19.5651 11.4763 19.9806L13.2754 26.7557H15.6605L19.3154 18.2682H16.944" fill="white"/>
<defs>
<filter id="filter0_d_429_582" x="0.623034" y="0.448718" width="44.1026" height="44.1026" filterUnits="userSpaceOnUse" color-interpolation-filters="sRGB">
<feFlood flood-opacity="0" result="BackgroundImageFix"/>
<feColorMatrix in="SourceAlpha" type="matrix" values="0 0 0 0 0 0 0 0 0 0 0 0 0 0 0 0 0 0 127 0" result="hardAlpha"/>
<feOffset/>
<feGaussianBlur stdDeviation="1.02564"/>
<feColorMatrix type="matrix" values="0 0 0 0 0 0 0 0 0 0 0 0 0 0 0 0 0 0 0.25 0"/>
<feBlend mode="normal" in2="BackgroundImageFix" result="effect1_dropShadow_429_582"/>
<feBlend mode="normal" in="SourceGraphic" in2="effect1_dropShadow_429_582" result="shape"/>
</filter>
</defs>
</svg>
