<svg width="44" height="44" viewBox="0 0 44 44" fill="none" xmlns="http://www.w3.org/2000/svg">
<g filter="url(#filter0_d_3743_101393)">
<path fill-rule="evenodd" clip-rule="evenodd" d="M42 22C42 33.0457 33.0457 42 22 42C10.9543 42 2 33.0457 2 22C2 10.9543 10.9543 2 22 2C33.0457 2 42 10.9543 42 22ZM22 40.3789C32.1504 40.3789 40.3789 32.1504 40.3789 22C40.3789 11.8496 32.1504 3.62113 22 3.62113C11.8496 3.62113 3.62113 11.8496 3.62113 22C3.62113 32.1504 11.8496 40.3789 22 40.3789Z" fill="white"/>
</g>
<path d="M40.3791 22C40.3791 32.1503 32.1506 40.3788 22.0002 40.3788C11.8498 40.3788 3.62134 32.1503 3.62134 22C3.62134 11.8496 11.8498 3.62109 22.0002 3.62109C32.1506 3.62109 40.3791 11.8496 40.3791 22Z" fill="#F4F4F4"/>
<path d="M9.69033 19.2815C9.32487 19.2815 8.95748 19.2747 8.59058 19.2815C8.38326 19.2863 8.36301 19.2203 8.43823 19.0404C8.5279 18.8254 8.63686 18.7068 8.8977 18.7367C9.16721 18.7675 9.44299 18.7319 9.71733 18.7478C9.9015 18.7584 10.0018 18.7034 10.0862 18.5308C10.7129 17.2532 11.7794 16.5218 13.114 16.1365C13.5242 16.0179 13.9447 15.9562 14.3718 16.0358C14.5767 16.0739 14.7754 16.1399 14.7701 16.4007C14.7653 16.6187 14.5203 16.8525 14.2961 16.8752C14.072 16.8978 13.8507 16.8212 13.6337 16.7705C12.8695 16.5873 12.3078 16.8443 11.9703 17.5444C11.7847 17.9301 11.6087 18.3225 11.4125 18.7458C11.9067 18.7458 12.3681 18.7458 12.8295 18.7458C13.0947 18.7458 13.1 18.7748 12.9925 19.0216C12.9037 19.226 12.7784 19.2979 12.5542 19.2863C12.1622 19.2661 11.7678 19.2926 11.3759 19.2757C11.1912 19.2675 11.1107 19.3403 11.0345 19.4941C10.2457 21.0823 9.44685 22.6656 8.66001 24.2542C8.57419 24.4283 8.46715 24.504 8.27864 24.5199C8.07229 24.5372 7.86834 24.5883 7.66199 24.612C7.39007 24.6423 7.33848 24.5676 7.45033 24.3203C8.17225 22.7279 8.89384 21.1356 9.61511 19.5433C9.65031 19.4666 9.71443 19.3953 9.69033 19.2815Z" fill="#D92527"/>
<path d="M23.6492 18.4137C23.4983 18.3398 23.3365 18.291 23.17 18.269C21.5765 18.0511 20.1388 18.4431 18.8529 19.3929C18.4369 19.7 18.0897 20.077 17.8993 20.5717C17.6283 21.2742 17.8853 21.8657 18.5829 22.1459C18.945 22.2905 19.3274 22.3315 19.7121 22.3387C20.9907 22.3647 22.1502 21.9641 23.2413 21.3315C23.3223 21.2833 23.4737 21.2587 23.4274 21.1257C23.3879 21.0128 23.2558 20.9453 23.143 20.9285C23.0624 20.9169 22.9665 20.9849 22.8816 21.0249C22.1126 21.399 21.3186 21.6777 20.4507 21.6883C20.2344 21.6969 20.0179 21.6773 19.8066 21.63C19.3018 21.5138 19.1567 21.2824 19.2666 20.7824C19.2975 20.6435 19.363 20.5857 19.5111 20.5809C20.1354 20.5567 20.7573 20.4885 21.3721 20.3769C22.0345 20.2617 22.6912 20.1175 23.2934 19.8012C23.5436 19.6696 23.7755 19.5091 23.9139 19.2526C24.1043 18.9026 24.0045 18.5896 23.6492 18.4137ZM22.5225 19.1296C22.4207 19.3611 22.224 19.5009 22.01 19.6156C21.5027 19.888 20.9493 20.0071 20.3861 20.0915C20.1185 20.1315 19.8476 20.1537 19.5111 20.1918C19.6351 19.9937 19.7864 19.814 19.9604 19.6581C20.4859 19.1586 21.0775 18.7811 21.8132 18.6735C21.9798 18.6477 22.1499 18.6569 22.3127 18.7005C22.5557 18.7666 22.6256 18.8992 22.5225 19.1296Z" fill="#D92527"/>
<path d="M29.4547 18.3616C29.0888 18.2246 28.7041 18.214 28.2865 18.2029C27.1384 18.2099 26.0174 18.553 25.062 19.1899C24.6035 19.4922 24.2 19.8557 23.9338 20.347C23.4705 21.2004 23.7796 21.9501 24.7125 22.2095C25.4463 22.4139 26.1864 22.3599 26.9245 22.2181C27.7596 22.0576 28.5189 21.7085 29.2494 21.2881C29.3207 21.2466 29.4422 21.1917 29.3395 21.0953C29.2257 20.9858 29.1076 20.86 28.9027 20.9781C28.5741 21.1605 28.2277 21.309 27.869 21.4212C27.1776 21.6487 26.4737 21.7809 25.7476 21.6295C25.2337 21.5229 25.0726 21.2524 25.2043 20.7616C25.2346 20.6488 25.2848 20.5885 25.4145 20.5803C25.806 20.5553 26.197 20.5249 26.5865 20.4791C27.3739 20.386 28.153 20.251 28.894 19.9555C29.2084 19.8301 29.5102 19.6797 29.7334 19.416C30.0945 18.9883 29.9793 18.5544 29.4547 18.3616ZM28.4326 19.1744C28.3193 19.389 28.1274 19.5196 27.9182 19.6276C27.2962 19.9497 26.6193 20.0616 25.9342 20.1416C25.7872 20.159 25.6391 20.1662 25.4323 20.1831C25.9737 19.4845 26.5894 18.9917 27.3917 18.7516C27.6602 18.6706 27.9355 18.619 28.219 18.6966C28.5025 18.7743 28.5695 18.9131 28.4326 19.173V19.1744Z" fill="#D92527"/>
<path d="M17.6332 24.6544C17.2378 25.2503 16.8781 25.7917 16.5059 26.352L15.4153 24.7127L15.3671 24.7267V24.9547C15.3671 25.6591 15.3642 26.3635 15.3671 27.0679C15.3671 27.1976 15.3416 27.2608 15.1969 27.2473C14.9761 27.2656 14.7196 27.2709 14.5465 27.2034C14.4737 27.052 14.5065 26.795 14.5056 26.5819C14.5012 25.5497 14.508 24.517 14.4993 23.4847C14.4993 23.3102 14.5427 23.2788 14.7182 23.2518C15.2669 23.166 15.6159 23.3584 15.8435 23.8661C15.9881 24.1838 16.2152 24.4625 16.3897 24.7677C16.4929 24.9475 16.5421 24.907 16.6308 24.758C16.9032 24.3067 17.191 23.8641 17.4649 23.4134C17.5295 23.3073 17.5936 23.2499 17.7272 23.2581C17.974 23.274 18.2971 23.1786 18.4504 23.301C18.609 23.4293 18.4986 23.7648 18.4986 24.0093C18.5044 25.0174 18.4986 26.026 18.5049 27.0347C18.5049 27.2005 18.4639 27.2661 18.2922 27.2478C18.0926 27.2478 17.8636 27.2656 17.6896 27.2058C17.6226 27.065 17.6491 26.8114 17.6467 26.606C17.6409 26.0535 17.6467 25.5015 17.6467 24.9489C17.6467 24.8704 17.6399 24.7961 17.6332 24.6544Z" fill="#393839"/>
<path d="M27.3469 25.6417C27.3469 24.9243 27.3542 24.2069 27.3416 23.4895C27.3387 23.2967 27.3932 23.2393 27.5798 23.2566C27.778 23.2759 28.0451 23.1935 28.1613 23.2942C28.2967 23.4119 28.2051 23.6848 28.2056 23.8897C28.2099 24.9378 28.2056 25.986 28.2114 27.0341C28.2114 27.2043 28.1574 27.2309 27.9968 27.2521C27.6015 27.3037 27.3585 27.1556 27.129 26.8288C26.6339 26.1239 26.089 25.4489 25.5635 24.7638C25.4787 24.812 25.5153 24.8819 25.5153 24.9374C25.5124 25.6336 25.509 26.3298 25.5153 27.026C25.5153 27.1826 25.4902 27.267 25.3094 27.2458C25.0968 27.2207 24.8128 27.336 24.6894 27.1976C24.5838 27.079 24.6528 26.8022 24.6523 26.5959C24.6523 25.5636 24.6547 24.5314 24.6479 23.4991C24.6479 23.327 24.6749 23.2701 24.8731 23.2494C25.3027 23.205 25.5717 23.3531 25.8181 23.7122C26.2785 24.3834 26.7978 25.014 27.2929 25.6615L27.3469 25.6417Z" fill="#393839"/>
<path d="M21.5815 23.183C20.3762 23.1902 19.4558 24.0841 19.4553 25.2513C19.4553 26.4321 20.3574 27.3057 21.5767 27.3052C22.796 27.3047 23.6981 26.4272 23.6981 25.247C23.6981 24.0667 22.7845 23.1757 21.5815 23.183ZM21.5849 26.5169C20.9008 26.5169 20.369 25.9562 20.3694 25.2373C20.3699 24.5185 20.8853 23.9872 21.5748 23.9876C22.2642 23.9881 22.7888 24.5329 22.7869 25.26C22.7849 25.9871 22.2715 26.5184 21.5849 26.5169Z" fill="#393839"/>
<path d="M15.842 19.7C15.9669 19.7 16.0088 19.6099 16.0705 19.5554C16.5358 19.1494 17.0131 18.7613 17.5753 18.4913C17.8703 18.3496 18.177 18.2758 18.5048 18.3144C18.8187 18.3515 18.9517 18.553 18.8664 18.8563C18.8267 18.9996 18.7439 19.1273 18.6294 19.2221C18.5148 19.317 18.3739 19.3744 18.2257 19.3866C18.1701 19.395 18.1137 19.396 18.0579 19.3895C17.2411 19.2324 16.6534 19.6306 16.1356 20.186C15.5807 20.7763 15.1154 21.445 14.7548 22.1705C14.6685 22.345 14.5508 22.4217 14.3691 22.4356C14.1295 22.4608 13.8874 22.443 13.6541 22.3831C13.4255 22.317 13.3884 22.2221 13.5008 22.0109C13.8955 21.2716 14.2911 20.5323 14.6878 19.7931C14.7375 19.7109 14.7801 19.6246 14.815 19.5351C14.8435 19.4512 14.9327 19.3625 14.8478 19.2695C14.763 19.1764 14.6516 19.1904 14.5354 19.215C14.1598 19.2955 13.8378 19.4874 13.5162 19.6822C13.4445 19.7209 13.3608 19.7312 13.2819 19.7109C13.2029 19.6906 13.1346 19.6412 13.0905 19.5727C13.0819 19.5614 13.0759 19.5484 13.0729 19.5345C13.07 19.5207 13.0701 19.5063 13.0733 19.4925C13.0765 19.4787 13.0828 19.4657 13.0916 19.4546C13.1004 19.4435 13.1115 19.4344 13.1242 19.4281C13.899 18.892 14.6521 18.3057 15.666 18.3134C15.7382 18.313 15.8102 18.321 15.8806 18.337C16.2181 18.4195 16.3314 18.6181 16.2007 18.944C16.0985 19.1967 15.9669 19.4392 15.842 19.7Z" fill="#D92527"/>
<path d="M29.3223 25.2512C29.3223 24.6515 29.3286 24.0512 29.3185 23.4514C29.3156 23.2885 29.3667 23.2552 29.5205 23.2586C30.3941 23.2653 31.2677 23.2653 32.1414 23.2586C32.286 23.2586 32.3308 23.2919 32.3342 23.4432C32.3381 24.0329 32.3443 24.0329 31.7557 24.0329C31.2909 24.0329 30.8256 24.0372 30.3608 24.03C30.2278 24.03 30.1853 24.0633 30.182 24.2021C30.1661 24.852 30.1612 24.852 30.8189 24.852C31.1877 24.852 31.5561 24.8554 31.9249 24.852C32.0353 24.852 32.0729 24.8776 32.0787 24.9967C32.1091 25.6259 32.1129 25.6259 31.4972 25.6259C31.1284 25.6259 30.7596 25.635 30.3912 25.6215C30.2157 25.6153 30.1675 25.677 30.1839 25.8394C30.2046 26.0444 30.0986 26.3105 30.2268 26.4402C30.3551 26.5699 30.6222 26.4778 30.828 26.4807C31.2769 26.487 31.7258 26.4879 32.1746 26.4807C32.3159 26.4778 32.3675 26.5067 32.3675 26.662C32.3675 27.2487 32.3762 27.2487 31.7889 27.2487C31.0517 27.2487 30.3141 27.2415 29.5769 27.2535C29.384 27.2569 29.3165 27.214 29.3214 27.0086C29.332 26.4199 29.3223 25.8346 29.3223 25.2512Z" fill="#393839"/>
<path d="M34.8795 24.8607C35.1895 24.3521 35.4802 23.8839 35.7599 23.4095C35.8249 23.2996 35.8915 23.2509 36.0226 23.2567C36.2839 23.2678 36.5462 23.2596 36.8451 23.2596C36.5351 23.7417 36.2786 24.2238 35.945 24.6476C35.4209 25.3101 35.1972 26.028 35.2951 26.8655C35.339 27.2381 35.3028 27.242 34.9243 27.242C34.4383 27.242 34.4017 27.2386 34.447 26.7546C34.5179 26.001 34.3366 25.353 33.8651 24.7552C33.5546 24.3617 33.3145 23.9129 33.0454 23.4862C33.0054 23.4221 32.936 23.3681 32.9452 23.2581C33.2407 23.2581 33.5348 23.263 33.8289 23.2581C33.948 23.2552 33.9697 23.3449 34.0126 23.4163C34.298 23.8873 34.5825 24.3598 34.8795 24.8607Z" fill="#393839"/>
<path d="M12.2383 23.4134C12.7687 23.4134 13.2957 23.4134 13.8246 23.4134C14.0801 23.4134 14.2069 23.5122 14.2131 23.7051C14.2194 23.8979 14.082 24.0252 13.8226 24.0257C12.7655 24.0289 11.7081 24.0289 10.6507 24.0257C10.3831 24.0257 10.2505 23.9143 10.251 23.7142C10.2515 23.5141 10.3812 23.4134 10.6526 23.4129C11.181 23.4126 11.7096 23.4127 12.2383 23.4134Z" fill="#DA2628"/>
<path d="M11.1795 25.0266C11.6038 25.0266 12.0285 25.03 12.4528 25.0266C12.6538 25.0266 12.7773 25.1047 12.7903 25.3111C12.8033 25.5039 12.6765 25.6216 12.4528 25.6225C11.5962 25.6251 10.7396 25.6251 9.88303 25.6225C9.65787 25.6225 9.52914 25.5039 9.54216 25.3135C9.55614 25.1076 9.68198 25.0242 9.87965 25.0276C10.315 25.0285 10.7475 25.0266 11.1795 25.0266Z" fill="#393839"/>
<path d="M12.0529 27.2203C11.8046 27.2203 11.5558 27.2203 11.3075 27.2203C11.1146 27.2203 10.9975 27.1263 10.9917 26.9373C10.9854 26.7362 11.1016 26.6268 11.3056 26.6258C11.8179 26.6239 12.3307 26.6239 12.8441 26.6258C13.0369 26.6258 13.1454 26.7348 13.1478 26.9228C13.1502 27.1109 13.0388 27.2164 12.846 27.2184C12.5818 27.2222 12.3171 27.2203 12.0529 27.2203Z" fill="#D92527"/>
<defs>
<filter id="filter0_d_3743_101393" x="0.378872" y="0.378872" width="43.2423" height="43.2423" filterUnits="userSpaceOnUse" color-interpolation-filters="sRGB">
<feFlood flood-opacity="0" result="BackgroundImageFix"/>
<feColorMatrix in="SourceAlpha" type="matrix" values="0 0 0 0 0 0 0 0 0 0 0 0 0 0 0 0 0 0 127 0" result="hardAlpha"/>
<feOffset/>
<feGaussianBlur stdDeviation="0.810564"/>
<feColorMatrix type="matrix" values="0 0 0 0 0 0 0 0 0 0 0 0 0 0 0 0 0 0 0.25 0"/>
<feBlend mode="normal" in2="BackgroundImageFix" result="effect1_dropShadow_3743_101393"/>
<feBlend mode="normal" in="SourceGraphic" in2="effect1_dropShadow_3743_101393" result="shape"/>
</filter>
</defs>
</svg>
