<svg width="44" height="44" viewBox="0 0 44 44" fill="none" xmlns="http://www.w3.org/2000/svg">
<g filter="url(#filter0_d_2377_43776)">
<path fill-rule="evenodd" clip-rule="evenodd" d="M42 22C42 33.0457 33.0457 42 22 42C10.9543 42 2 33.0457 2 22C2 10.9543 10.9543 2 22 2C33.0457 2 42 10.9543 42 22ZM22 40.3789C32.1504 40.3789 40.3789 32.1504 40.3789 22C40.3789 11.8496 32.1504 3.62113 22 3.62113C11.8496 3.62113 3.62113 11.8496 3.62113 22C3.62113 32.1504 11.8496 40.3789 22 40.3789Z" fill="white"/>
</g>
<path d="M40.3791 22C40.3791 32.1503 32.1506 40.3788 22.0002 40.3788C11.8498 40.3788 3.62134 32.1503 3.62134 22C3.62134 11.8496 11.8498 3.62109 22.0002 3.62109C32.1506 3.62109 40.3791 11.8496 40.3791 22Z" fill="#EA6607"/>
<path fill-rule="evenodd" clip-rule="evenodd" d="M19.4441 17.5258V17.5258V17.5259C19.4449 17.6066 19.4458 17.6874 19.4458 17.7681H19.4394C19.4394 17.8427 19.4393 17.9174 19.4391 17.9922V17.9924V17.9926C19.4387 18.1425 19.4384 18.2927 19.4394 18.4429C19.4434 18.979 19.6781 19.3858 20.1531 19.6309C20.7638 19.9457 21.3982 19.9568 22.0246 19.6824C22.552 19.4516 22.8319 19.0353 22.8375 18.4517C22.8414 17.9949 22.8406 17.5389 22.8375 17.0821C22.8343 16.5508 22.6004 16.1472 22.1285 15.9021C21.525 15.5889 20.897 15.5746 20.2753 15.8387C19.7709 16.0528 19.4704 16.4343 19.4474 16.9981C19.4403 17.1737 19.4422 17.3497 19.4441 17.5258ZM21.7943 17.9637C21.7948 17.8961 21.7953 17.8285 21.7953 17.761C21.7953 17.6869 21.7949 17.6129 21.7945 17.5389V17.5388V17.5388C21.7936 17.3909 21.7927 17.2431 21.7953 17.0956C21.8001 16.9116 21.7168 16.7832 21.559 16.7063C21.291 16.5754 21.0142 16.5683 20.7422 16.6928C20.567 16.7729 20.4766 16.9109 20.4797 17.1155C20.4869 17.55 20.4861 17.9846 20.4797 18.4192C20.4774 18.6087 20.5582 18.7379 20.7208 18.8141C21.0007 18.9449 21.2862 18.9465 21.5646 18.8085C21.7168 18.7324 21.8025 18.6095 21.7969 18.4271C21.792 18.2726 21.7931 18.1181 21.7943 17.9637ZM26.5434 15.7151L26.2718 15.715C26.2885 15.7622 26.3044 15.8064 26.3198 15.8492L26.3198 15.8493L26.3543 15.9457C26.8079 17.205 27.2615 18.4643 27.7127 19.7244C27.7357 19.7902 27.7674 19.8085 27.8341 19.8077C28.0815 19.8037 28.3289 19.8013 28.5763 19.8085C28.6667 19.8116 28.7064 19.7823 28.7365 19.6974C29.054 18.8092 29.3736 17.922 29.6931 17.0351L29.8959 16.4723C29.9391 16.3517 29.9822 16.2311 30.0256 16.1095L30.0257 16.1094L30.0257 16.1094C30.0722 15.9792 30.1191 15.8478 30.1671 15.7142L29.8957 15.7144C29.628 15.7147 29.365 15.715 29.1021 15.7126C29.0529 15.7119 29.0449 15.7396 29.0362 15.7693L29.0323 15.7824C28.998 15.8885 28.9634 15.9945 28.9288 16.1004L28.9287 16.1006L28.9286 16.1009L28.9286 16.101L28.9286 16.1011C28.8395 16.3742 28.7504 16.647 28.6659 16.9211C28.6353 17.0201 28.6023 17.1183 28.5693 17.2166L28.5693 17.2167L28.5693 17.2167L28.5693 17.2167C28.4825 17.475 28.3958 17.7334 28.3527 18.0052C28.3284 18.1561 28.2979 18.3062 28.2675 18.4564L28.2675 18.4565L28.2674 18.4566L28.2674 18.4567C28.2531 18.5274 28.2387 18.5981 28.225 18.6689C28.2036 18.638 28.1957 18.6078 28.1901 18.5769C28.1721 18.4846 28.1565 18.3916 28.141 18.2985C28.1078 18.1005 28.0747 17.9024 28.018 17.711C27.8802 17.2447 27.7302 16.7817 27.5802 16.3187C27.5205 16.1344 27.4608 15.9502 27.4019 15.7657C27.3916 15.7332 27.3781 15.7142 27.3368 15.7142C27.0739 15.7154 26.811 15.7152 26.5434 15.7151ZM17.603 16.8475C17.4816 17.1282 17.3595 17.4089 17.2287 17.7095L17.2124 17.6736C17.1958 17.6373 17.1837 17.6108 17.1739 17.5834C16.9186 16.9902 16.6632 16.397 16.4103 15.8031C16.3825 15.738 16.35 15.7143 16.2778 15.7158C15.9924 15.7206 15.7069 15.7198 15.4214 15.7166C15.3532 15.7158 15.3286 15.7285 15.3286 15.8039C15.331 17.1099 15.331 18.4168 15.3294 19.7229C15.3294 19.7871 15.3429 19.8109 15.4119 19.8101C15.7069 19.8062 16.0019 19.807 16.2969 19.8101C16.3611 19.8109 16.3754 19.7903 16.3746 19.73C16.3735 19.6059 16.3738 19.4817 16.374 19.3575V19.3574C16.3748 18.9208 16.3756 18.4843 16.3207 18.0497C16.3141 17.9963 16.3117 17.9419 16.3093 17.8876C16.3082 17.8628 16.3071 17.838 16.3056 17.8133C16.3341 17.8316 16.3452 17.853 16.354 17.8752L16.4265 18.0599L16.4266 18.0599C16.5666 18.4163 16.7068 18.7728 16.844 19.1305C16.8655 19.1868 16.8932 19.2074 16.9535 19.2059C17.1375 19.2019 17.3214 19.2003 17.5054 19.2059C17.5712 19.2074 17.5982 19.1829 17.6204 19.1242C17.7734 18.7158 17.9304 18.3083 18.0874 17.9007L18.0874 17.9007L18.0875 17.9006L18.0875 17.9006C18.0903 17.893 18.0926 17.885 18.095 17.8769L18.095 17.8769L18.095 17.8769C18.1027 17.8505 18.1107 17.8232 18.1351 17.8062C18.157 17.8215 18.1544 17.8385 18.1521 17.8538C18.1516 17.8568 18.1512 17.8597 18.1509 17.8625C18.089 18.4117 18.0864 18.9633 18.0838 19.5147V19.5147V19.5147L18.0827 19.7237C18.0827 19.7871 18.0946 19.8109 18.1644 19.8101C18.4626 19.8062 18.7607 19.807 19.0589 19.8101C19.1184 19.8109 19.1327 19.7935 19.1327 19.7356C19.1311 18.4232 19.1311 17.1099 19.1327 15.7975C19.1327 15.7349 19.116 15.7166 19.0534 15.7174C18.7615 15.7206 18.4697 15.7214 18.1779 15.7166C18.1073 15.7151 18.0795 15.7428 18.0542 15.8015C17.9059 16.1512 17.7545 16.4992 17.603 16.8473L17.603 16.8473L17.603 16.8475ZM26.4409 17.9636L26.4409 17.9642C26.4403 18.1134 26.4396 18.2625 26.4423 18.4113C26.4534 19.0369 26.1553 19.4676 25.5914 19.6999C24.9436 19.9664 24.2949 19.9426 23.6827 19.5841C23.2584 19.3359 23.0514 18.9497 23.0522 18.4549C23.0525 18.3315 23.0534 18.208 23.0543 18.0846L23.0543 18.0844C23.0566 17.7702 23.059 17.4561 23.0499 17.1425C23.03 16.4581 23.4115 15.9989 23.9777 15.7991C24.6295 15.5683 25.2695 15.6009 25.8642 15.9791C26.2536 16.2273 26.4415 16.5977 26.4423 17.0608C26.4423 17.1781 26.4421 17.2955 26.4419 17.4129C26.4417 17.5302 26.4415 17.6476 26.4415 17.765C26.4415 17.8312 26.4412 17.8974 26.4409 17.9636ZM25.4082 17.7625C25.4082 17.8299 25.4079 17.8973 25.4076 17.9646C25.4069 18.1161 25.4063 18.2676 25.409 18.4191C25.4122 18.5928 25.3376 18.7213 25.187 18.7982C24.8904 18.9513 24.589 18.9481 24.294 18.7934C24.1553 18.7205 24.0847 18.5976 24.0855 18.435C24.0871 17.9878 24.0871 17.5405 24.0855 17.0932C24.0847 16.9204 24.1632 16.7919 24.3115 16.7134C24.6089 16.5572 24.9102 16.5675 25.2028 16.7245C25.3424 16.799 25.4082 16.9267 25.4082 17.0861V17.7625Z" fill="#005CA9"/>
<path fill-rule="evenodd" clip-rule="evenodd" d="M11.4524 21.3946C11.2865 21.6832 11.1186 21.9752 10.9457 22.2755C10.8783 22.0408 10.8172 21.829 10.753 21.6205L10.5861 21.0434L10.5861 21.0432C10.3886 20.3603 10.1912 19.6777 9.99568 18.994C9.97426 18.9203 9.94572 18.8965 9.86721 18.8973C9.34704 18.9013 8.82687 18.8997 8.3067 18.8981L8.30658 18.8981C8.24155 18.8981 8.20904 18.9036 8.19873 18.9845C8.15591 19.3174 8.10898 19.6494 8.06209 19.9812L8.06209 19.9812L8.06209 19.9812L8.06209 19.9812L8.06208 19.9812L8.06208 19.9812C8.04384 20.1103 8.0256 20.2393 8.00761 20.3683L7.8698 21.3508C7.81628 21.7319 7.76275 22.1131 7.70944 22.4944C7.61745 23.1526 7.52467 23.8116 7.43189 24.4697L7.25584 25.7306L7.25497 25.7368C7.24735 25.79 7.24166 25.8297 7.32721 25.829C7.86007 25.8242 8.39293 25.8258 8.92579 25.8274H8.92591C8.97904 25.8274 9.00283 25.8179 9.00997 25.7576C9.0315 25.5849 9.05579 25.4128 9.08007 25.2407L9.08007 25.2407L9.08008 25.2406C9.09694 25.1211 9.11379 25.0017 9.12971 24.8821C9.1422 24.7895 9.15514 24.697 9.16808 24.6045C9.20688 24.3269 9.24569 24.0493 9.27246 23.7703C9.2973 23.5102 9.31228 23.2487 9.32726 22.9872L9.32727 22.9871L9.32727 22.9871L9.32727 22.9871L9.32727 22.9871L9.32727 22.9871L9.32727 22.9871C9.33476 22.8563 9.34224 22.7256 9.35096 22.5951C9.35187 22.583 9.35215 22.5707 9.35244 22.5583V22.5583V22.5583V22.5583V22.5583V22.5583V22.5583V22.5583C9.35341 22.5164 9.35442 22.4733 9.37951 22.4317C9.40751 22.4566 9.41256 22.4849 9.41727 22.5113C9.41857 22.5185 9.41983 22.5256 9.42154 22.5324L9.42156 22.5325C9.60632 23.2628 9.79109 23.9932 9.97109 24.7243C9.98775 24.7917 10.0147 24.8084 10.0797 24.8076C10.4191 24.8044 10.7585 24.8028 11.098 24.8084C11.178 24.8092 11.2153 24.779 11.2494 24.7132C11.6285 23.9828 12.0099 23.2541 12.3921 22.5253C12.3967 22.5167 12.4004 22.5056 12.4042 22.4942L12.4042 22.4942C12.4151 22.4617 12.4269 22.4267 12.4603 22.4397C12.4932 22.4522 12.4802 22.4894 12.4684 22.5233C12.4645 22.5344 12.4607 22.5452 12.4587 22.5546C12.4253 22.7179 12.3908 22.8808 12.3562 23.0437C12.3114 23.2553 12.2666 23.4668 12.224 23.6791C12.1688 23.9542 12.1317 24.232 12.0946 24.5099V24.5099L12.0946 24.5099L12.0946 24.5099L12.0946 24.5099L12.0946 24.5099L12.0946 24.51L12.0946 24.51C12.0747 24.659 12.0548 24.808 12.0321 24.9566C11.9925 25.216 11.956 25.4769 11.9203 25.737C11.9195 25.7431 11.9182 25.7496 11.9169 25.7562L11.9169 25.7562C11.9099 25.7901 11.9026 25.8258 11.9711 25.8258C12.5198 25.8242 13.0686 25.8242 13.6173 25.8258C13.6697 25.8258 13.6808 25.8012 13.6863 25.7576C13.7046 25.6164 13.7244 25.4753 13.7442 25.3341C13.7933 24.9831 13.8421 24.6321 13.8908 24.2811L13.8908 24.281L13.8908 24.2808L13.8909 24.2806L13.8909 24.2804L13.8909 24.2803L13.8909 24.2801C13.9397 23.9288 13.9885 23.5776 14.0376 23.2263C14.0868 22.8751 14.1363 22.5238 14.1859 22.1726C14.2355 21.8212 14.285 21.4699 14.3342 21.1185L14.392 20.7047C14.4717 20.1337 14.5514 19.5628 14.6332 18.9925C14.6435 18.9203 14.634 18.8941 14.5523 18.8949C14.0257 18.8981 13.4992 18.8973 12.9726 18.8949C12.91 18.8941 12.8775 18.914 12.8465 18.9679C12.5531 19.4819 12.2575 19.9954 11.962 20.5088L11.9618 20.5091L11.768 20.8457L11.4524 21.3946ZM29.6113 25.9052C29.758 25.8885 29.8999 25.8465 30.0427 25.7965C30.0141 26.1304 29.8254 26.3524 29.5114 26.4111C29.1212 26.4841 28.7628 26.3968 28.44 26.1684C28.3892 26.1328 28.3655 26.128 28.3211 26.1795C28.0887 26.4523 27.8532 26.722 27.6145 26.9892C27.5669 27.0423 27.5653 27.0661 27.6224 27.1121C28.2465 27.6204 28.9523 27.8607 29.7596 27.7576C30.2266 27.6981 30.6342 27.5118 30.9602 27.1629C31.2877 26.8124 31.4669 26.3865 31.5747 25.9274C31.6527 25.5947 31.6958 25.2562 31.7388 24.9176C31.7549 24.7912 31.771 24.6649 31.7889 24.5388C31.8765 23.9196 31.9633 23.3002 32.0501 22.6809L32.0501 22.6808L32.0501 22.6807L32.0501 22.6806L32.0501 22.6806L32.0501 22.6805L32.0502 22.6804C32.137 22.0609 32.2238 21.4413 32.3115 20.822C32.3186 20.7705 32.3083 20.757 32.2567 20.757C31.7556 20.7586 31.2544 20.7586 30.7532 20.757C30.7001 20.757 30.6866 20.7744 30.6802 20.826C30.6637 20.9661 30.6437 21.1059 30.6237 21.2455C30.6149 21.3066 30.6062 21.3676 30.5978 21.4286L30.3218 23.4334C30.2984 23.6027 30.2754 23.7722 30.2524 23.9417L30.2521 23.944C30.2292 24.1127 30.2063 24.2814 30.183 24.45C30.1775 24.4904 30.1703 24.5253 30.1236 24.5475C29.9475 24.6308 29.7651 24.649 29.5772 24.6046C29.417 24.5666 29.3377 24.4627 29.3321 24.2977C29.3285 24.2049 29.343 24.1139 29.3574 24.023L29.3574 24.023L29.3574 24.0228L29.3575 24.0226L29.3575 24.0224C29.3619 23.9947 29.3663 23.967 29.3702 23.9393C29.4622 23.2811 29.555 22.6221 29.6477 21.9639C29.6682 21.8202 29.6884 21.6764 29.7086 21.5327L29.7088 21.5312L29.709 21.5297L29.7093 21.5281C29.7413 21.3 29.7734 21.0719 29.8063 20.8442C29.8151 20.7831 29.8087 20.7554 29.7342 20.7562C29.2489 20.7593 28.7635 20.7593 28.2782 20.7562C28.2203 20.7562 28.2013 20.7752 28.1942 20.8283C28.1709 21.0034 28.1464 21.1781 28.1218 21.353L28.095 21.5436C28.0692 21.7263 28.0432 21.9089 28.0172 22.0915C27.9497 22.5644 27.8824 23.0371 27.8183 23.5103C27.8076 23.5896 27.795 23.6688 27.7825 23.748L27.7825 23.7481L27.7825 23.7481L27.7825 23.7482L27.7825 23.7482L27.7825 23.7482L27.7825 23.7483C27.745 23.9851 27.7075 24.2223 27.7176 24.4635C27.7366 24.9258 27.8928 25.3255 28.2735 25.611C28.6731 25.9115 29.1315 25.9599 29.6113 25.9052ZM22.012 25.8235L21.7973 25.8232H21.7971C21.6182 25.8229 21.4392 25.8226 21.2602 25.8243C21.2008 25.8251 21.1881 25.8124 21.1976 25.7498C21.2594 25.3197 21.3203 24.8893 21.3811 24.459L21.3812 24.4585C21.4671 23.851 21.553 23.2434 21.6417 22.6364C21.7059 22.1971 21.4767 22.0877 21.1246 22.1154C20.8891 22.1337 20.8851 22.14 20.8526 22.3692C20.7796 22.881 20.7076 23.3929 20.6356 23.9049C20.5841 24.271 20.5326 24.6372 20.4807 25.0035C20.4684 25.091 20.4555 25.1784 20.4427 25.2659C20.4192 25.426 20.3957 25.5861 20.3752 25.7466C20.3673 25.8061 20.3499 25.8251 20.2888 25.8251C19.7876 25.8227 19.2864 25.8227 18.7853 25.8251C18.7194 25.8251 18.7052 25.8061 18.7147 25.7434C18.7676 25.3775 18.8197 25.0117 18.8719 24.6458L18.9502 24.0971C19.043 23.4453 19.1358 22.7926 19.2278 22.1408L19.2764 21.7973C19.3067 21.5824 19.3371 21.3674 19.3681 21.1527L19.3689 21.1468C19.3748 21.104 19.3802 21.0652 19.4363 21.0417C20.2848 20.6904 21.1579 20.5572 22.0667 20.7388C22.3815 20.8022 22.6702 20.9299 22.9065 21.1551C23.1761 21.4112 23.2903 21.7364 23.3165 22.0988C23.3342 22.3437 23.2979 22.5835 23.2615 22.8236L23.2615 22.8236L23.2615 22.8238C23.2523 22.8845 23.2431 22.9452 23.2348 23.006C23.1672 23.4984 23.0969 23.9903 23.0266 24.4822L22.9581 24.9623C22.948 25.0332 22.9378 25.1041 22.9276 25.175C22.8999 25.3674 22.8722 25.56 22.8478 25.7529C22.8407 25.8124 22.8185 25.8243 22.7646 25.8235C22.5971 25.8224 22.43 25.8228 22.2629 25.8232H22.2629H22.2628H22.2627H22.2626H22.2625C22.179 25.8233 22.0955 25.8235 22.012 25.8235ZM14.4668 23.6649L14.4668 23.6649L14.4668 23.6649L14.4668 23.6649L14.4668 23.6649L14.4668 23.6648L14.4668 23.6648C14.4837 23.5529 14.5007 23.4409 14.515 23.3286C14.5215 23.2777 14.5277 23.2267 14.534 23.1756L14.534 23.1754C14.5656 22.9183 14.5972 22.6606 14.6514 22.4079C14.8322 21.5634 15.3747 21.0416 16.178 20.7815C16.7204 20.6062 17.2691 20.6039 17.8076 20.8148C18.492 21.082 18.8639 21.6712 18.783 22.4024C18.7164 23.0067 18.6291 23.6086 18.5316 24.2089C18.4253 24.8591 18.0471 25.3238 17.469 25.6172C16.7497 25.982 16.0011 26.0534 15.2517 25.7203C14.6784 25.4666 14.3882 25.0066 14.385 24.369C14.3957 24.1343 14.4312 23.8999 14.4668 23.6649ZM16.4125 24.5286C16.1421 24.5278 16.0009 24.3597 16.039 24.0924C16.0883 23.7439 16.1356 23.3951 16.1828 23.0464C16.2069 22.8682 16.2311 22.69 16.2555 22.512C16.2816 22.3216 16.4093 22.2217 16.5766 22.1622C16.7455 22.102 16.9018 22.1266 17.0374 22.2471C17.1167 22.3169 17.1444 22.4089 17.1294 22.5135C17.1014 22.7144 17.0738 22.9153 17.0462 23.1162L17.0462 23.1163L17.0462 23.1163L17.0462 23.1163L17.0462 23.1163L17.0461 23.1163L17.0461 23.1167L17.0461 23.117L17.046 23.1174L17.046 23.1177L17.0459 23.1181C17.0008 23.4466 16.9556 23.7752 16.9089 24.1035C16.8692 24.3882 16.7011 24.5294 16.4125 24.5286ZM25.1206 23.9457C25.3038 23.9853 25.4901 24.0044 25.6749 23.9956C25.847 24.0028 26.0135 23.9869 26.1769 23.9552C26.5631 23.8791 26.9152 23.7308 27.2054 23.4564C27.586 23.0964 27.7232 22.6444 27.7169 22.1329C27.709 21.5072 27.3767 21.0163 26.7899 20.7951C26.3172 20.6166 25.8311 20.6119 25.3514 20.7459C24.4402 21.0005 23.847 21.5762 23.6749 22.5254C23.5758 23.0765 23.4949 23.6324 23.4402 24.1899C23.3792 24.8108 23.625 25.3017 24.1634 25.634C24.4933 25.8378 24.8581 25.9203 25.2411 25.9258C25.9897 25.9369 26.6368 25.6863 27.18 25.1685C27.2411 25.1114 27.2332 25.0821 27.1792 25.0289C26.9596 24.8132 26.7423 24.5959 26.529 24.3739C26.4711 24.3136 26.4402 24.3057 26.3648 24.3588C26.0571 24.5753 25.7201 24.6459 25.3585 24.5095C25.1476 24.4302 25.0254 24.2351 25.0334 24.0202C25.0357 23.9631 25.0421 23.9282 25.1206 23.9457ZM25.2488 22.968C25.3455 23.0005 25.4431 23.0258 25.5565 23.0227C25.9197 23.0227 26.1615 22.8197 26.2059 22.4668C26.2297 22.2796 26.1441 22.1163 25.9887 22.0544C25.7008 21.9402 25.3305 22.1424 25.275 22.4477C25.2588 22.5374 25.2461 22.6274 25.2334 22.7173L25.2334 22.7173L25.2334 22.7174L25.2334 22.7174L25.2334 22.7174C25.2248 22.7777 25.2163 22.838 25.2068 22.8982C25.2004 22.937 25.2115 22.9553 25.2488 22.968ZM34.6128 24.5777C33.7088 24.8394 32.6685 25.0853 31.7367 25.221L31.9015 25.2256C32.183 25.228 32.4646 25.2256 32.7469 25.2137C33.7468 25.1709 34.7302 25.0154 35.6992 24.7688C36.2393 24.6316 36.7698 24.4643 37.2876 24.2573C37.3423 24.2359 37.3685 24.2145 37.351 24.1479C37.3324 24.0763 37.3206 24.0031 37.3088 23.9297L37.3088 23.9296C37.304 23.8998 37.2992 23.87 37.2939 23.8402C37.2071 23.3573 37.1201 22.8745 37.0331 22.3918C36.946 21.909 36.859 21.4263 36.7722 20.9434L36.7721 20.9433C36.715 20.6261 36.658 20.3089 36.6001 19.9902C35.4148 21.0496 33.9848 21.663 32.5314 22.2865L32.5216 22.2907C33.0197 22.2463 33.4772 22.1329 33.9292 21.998C34.654 21.7816 35.3582 21.5088 36.0497 21.2011L36.0553 21.1985L36.065 21.1939C36.1012 21.1763 36.1317 21.1615 36.1457 21.2368C36.3019 22.0996 36.4613 22.9615 36.6239 23.8228C36.6366 23.891 36.6231 23.9139 36.5596 23.9377C35.9189 24.1756 35.2694 24.3882 34.6128 24.5777ZM31.7912 25.4817C32.1076 25.4801 32.424 25.4698 32.7396 25.4539C34.2051 25.3786 35.6468 25.1558 37.0528 24.7283C37.1186 24.7085 37.1408 24.7164 37.1535 24.7862C37.1892 24.9853 37.2281 25.1843 37.2717 25.381C37.2844 25.4389 37.2756 25.4547 37.2154 25.4634C36.7951 25.5237 36.374 25.5705 35.9513 25.6086C35.2321 25.6728 34.5104 25.7093 33.788 25.6974C33.1171 25.6855 32.4486 25.6403 31.7912 25.4817ZM33.2049 25.9026C32.8203 25.8734 32.4382 25.8443 32.0552 25.8L31.9015 25.7799C32.0069 25.8146 32.162 25.8589 32.3013 25.8987C32.3725 25.9191 32.4395 25.9383 32.4937 25.9544C33.4263 26.2327 34.3763 26.4048 35.3493 26.4532C35.9425 26.4825 36.5333 26.4722 37.1225 26.3913C37.1251 26.391 37.1276 26.3906 37.1302 26.3903C37.1669 26.3855 37.1947 26.3819 37.1843 26.3255C37.1471 26.1233 37.1122 25.9203 37.0828 25.7165C37.0741 25.6546 37.0575 25.6475 36.9996 25.6649C36.7014 25.7545 36.3977 25.8148 36.09 25.8592C35.4675 25.9496 34.841 25.9671 34.213 25.956C33.8775 25.9504 33.5421 25.9282 33.2074 25.9028L33.2049 25.9026Z" fill="#FEFEFE"/>
<defs>
<filter id="filter0_d_2377_43776" x="0.378872" y="0.378872" width="43.2423" height="43.2423" filterUnits="userSpaceOnUse" color-interpolation-filters="sRGB">
<feFlood flood-opacity="0" result="BackgroundImageFix"/>
<feColorMatrix in="SourceAlpha" type="matrix" values="0 0 0 0 0 0 0 0 0 0 0 0 0 0 0 0 0 0 127 0" result="hardAlpha"/>
<feOffset/>
<feGaussianBlur stdDeviation="0.810564"/>
<feColorMatrix type="matrix" values="0 0 0 0 0 0 0 0 0 0 0 0 0 0 0 0 0 0 0.25 0"/>
<feBlend mode="normal" in2="BackgroundImageFix" result="effect1_dropShadow_2377_43776"/>
<feBlend mode="normal" in="SourceGraphic" in2="effect1_dropShadow_2377_43776" result="shape"/>
</filter>
</defs>
</svg>
