<svg width="44" height="44" viewBox="0 0 44 44" fill="none" xmlns="http://www.w3.org/2000/svg">
<g filter="url(#filter0_d_429_506)">
<path fill-rule="evenodd" clip-rule="evenodd" d="M42 22.0436C42 33.0893 33.0457 42.0436 22 42.0436C10.9543 42.0436 2 33.0893 2 22.0436C2 10.9979 10.9543 2.04358 22 2.04358C33.0457 2.04358 42 10.9979 42 22.0436ZM22 40.4225C32.1504 40.4225 40.3789 32.194 40.3789 22.0436C40.3789 11.8932 32.1504 3.66471 22 3.66471C11.8496 3.66471 3.62113 11.8932 3.62113 22.0436C3.62113 32.194 11.8496 40.4225 22 40.4225Z" fill="white"/>
</g>
<path d="M40.5 22.0436C40.5 32.2608 32.2173 40.5436 22 40.5436C11.7827 40.5436 3.5 32.2608 3.5 22.0436C3.5 11.8263 11.7827 3.54358 22 3.54358C32.2173 3.54358 40.5 11.8263 40.5 22.0436Z" fill="#FECE01"/>
<path d="M9.9815 18.8991C9.9815 18.8991 15.598 9.11507 15.7517 9.04867C15.9053 8.98227 18.3191 9.64105 19.8098 10.7815L22.8368 8.91718C22.8368 8.91718 23.1883 8.89504 23.3419 9.02654C23.4955 9.15803 24.6139 10.6722 25.0097 11.3739L31.1743 13.4583C31.1743 13.4583 31.6573 14.0286 31.6573 14.6873C31.6573 15.3461 24.5931 34.2345 24.5931 34.2345C24.5931 34.2345 23.4526 34.7397 23.1453 34.5418C22.8381 34.3439 15.072 31.822 14.8091 31.3833C14.5461 30.9445 14.1503 30.3522 14.6333 29.3874C15.1163 28.4227 17.2007 22.1917 17.2007 22.1917C17.2007 22.1917 13.317 20.3052 10.225 19.4719C10.2237 19.4693 9.76277 19.2805 9.9815 18.8991Z" fill="#FDFEFA"/>
<path d="M25.1683 28.3989C24.7465 27.1347 24.0656 26.0059 23.1009 25.1206C22.1453 24.2431 21.092 23.4515 19.9984 22.7524C17.7005 21.2838 15.1864 20.2553 12.6229 19.3452C12.097 19.1591 11.5697 18.9729 10.989 18.7672C11.4694 17.9222 11.9264 17.1007 12.4003 16.2883C13.5096 14.3862 14.6357 12.4932 15.7332 10.5846C15.9572 10.1966 16.1368 10.0156 16.6329 10.2057C18.1548 10.7851 19.4958 11.6534 20.7691 12.6442C23.0892 14.4513 24.4184 16.8872 25.1436 19.6772C25.3519 20.4779 25.4287 21.3203 25.4886 22.1483C25.5667 23.2146 25.6175 24.2874 25.585 25.355C25.555 26.3626 25.4001 27.3664 25.3011 28.3715C25.2569 28.3806 25.2126 28.3897 25.1683 28.3989ZM17.9361 12.7015C15.9324 12.5882 14.1983 14.3029 14.1905 16.3651C14.1827 18.417 15.8804 20.1524 18.0468 20.0834C19.833 20.0262 21.6284 18.5159 21.6375 16.3886C21.6453 14.4318 20.0049 12.6065 17.9361 12.7015Z" fill="#016185"/>
<path d="M18.2114 22.6837C19.1033 23.2592 19.9652 23.7825 20.7932 24.3554C22.2631 25.3696 23.5259 26.5843 24.1391 28.3107C24.3383 28.8705 24.3826 29.498 24.4191 30.0995C24.4386 30.4107 24.3019 30.6724 23.8371 30.4979C21.7527 29.718 19.6553 28.9694 17.5605 28.2156C16.3953 27.7964 16.3458 27.7183 16.765 26.5635C17.2207 25.3136 17.6933 24.0729 18.2114 22.6837Z" fill="#DF001B"/>
<path d="M25.0103 11.3736C26.764 12.061 28.6778 12.7875 30.468 13.3694C31.2895 13.6363 31.4431 14.3589 31.2062 15.0138C30.0032 18.348 28.7924 21.6796 27.5777 25.01C26.5439 27.8443 25.5024 30.676 24.4609 33.5064C24.1914 34.2394 23.7279 34.4789 22.9962 34.2159C20.5004 33.3215 18.0241 32.3698 15.5127 31.5222C14.531 31.1902 14.4204 30.495 14.6899 29.7165C15.1117 28.4966 15.5739 27.291 16.0152 26.0789C16.4722 24.8238 16.9253 23.5674 17.3862 22.2942C17.1987 22.2147 17.0398 22.1483 16.8433 22.065C16.5464 22.8748 16.2548 23.6703 15.9645 24.4645C15.3044 26.2702 14.6248 28.0695 13.9933 29.887C13.6561 30.8583 14.078 31.6238 15.057 31.9831C16.0204 32.3372 16.9839 32.6927 17.9486 33.0416C19.6047 33.6405 21.2581 34.2511 22.9233 34.8239C23.8815 35.1533 24.6574 34.7666 24.9881 33.867C26.1143 30.7984 27.247 27.7336 28.3666 24.6624C29.5306 21.4726 30.6867 18.2816 31.8298 15.0854C31.9339 14.795 31.9769 14.4552 31.943 14.1506C31.8597 13.402 31.335 13.0374 30.6698 12.8005C29.2806 12.307 27.9005 11.7889 26.514 11.285C25.8448 11.0416 25.1717 10.8072 24.4999 10.569L25.0103 11.3736Z" fill="black"/>
<path d="M26.9806 24.0676C27.5001 20.1137 27.2332 16.2756 25.5381 12.5338C26.6096 12.9231 27.6329 13.2941 28.6549 13.6652C29.0155 13.7967 29.3749 13.9321 29.7368 14.0597C30.3266 14.2693 30.4372 14.5206 30.2198 15.1168C29.2212 17.8626 28.2266 20.6097 27.2319 23.3568C27.1473 23.5937 27.0639 23.8307 26.9806 24.0676Z" fill="black"/>
<path d="M26.209 20.1267C25.3341 16.4773 23.6663 13.4504 20.5352 11.3152C21.3215 10.84 22.0454 10.4025 22.8135 9.93774C25.1518 12.9231 26.2272 16.299 26.209 20.1267Z" fill="#016185"/>
<path d="M19.8418 32.0555C19.2481 32.0647 18.8003 31.6376 18.7938 31.053C18.7873 30.514 19.239 30.0401 19.7806 30.0167C20.2623 29.9959 20.8196 30.5219 20.8352 31.0127C20.8508 31.5257 20.3535 32.0477 19.8418 32.0555Z" fill="black"/>
<path d="M21.2715 32.2023C21.4043 31.8339 21.5306 31.4798 21.6608 31.1191C22.2844 31.3392 22.8898 31.58 23.5108 31.7636C23.9365 31.8886 24.0446 32.132 23.9248 32.5174C23.8024 32.9106 23.516 33.0421 23.1059 32.8924C22.4849 32.6671 21.8678 32.4276 21.2715 32.2023Z" fill="black"/>
<path d="M18.3044 29.8848C18.1755 30.2545 18.0518 30.6086 17.9216 30.9836C17.2498 30.7453 16.5676 30.5279 15.9088 30.2545C15.6953 30.166 15.4623 29.9993 15.6497 29.6426C15.8112 29.334 15.8711 28.9981 16.3515 29.1843C16.9894 29.433 17.6391 29.6478 18.3044 29.8848Z" fill="black"/>
<path d="M16.2896 18.2615C15.6894 17.6704 16.5279 16.8997 16.5279 16.8997L16.2219 16.5898C15.1504 17.4882 15.5423 18.5662 16.5175 19.0414C17.3103 19.4281 17.904 18.5024 17.9483 18.2459L17.6345 17.9634C17.6345 17.9634 17.1333 19.1703 16.3326 18.311L16.2896 18.2615Z" fill="#016185"/>
<path d="M16.5791 16.0712L18.299 17.7129L18.5932 17.3405L17.8745 16.6349L18.3055 15.9995L17.9904 15.6663L17.5087 16.3914L17.1363 15.9878L17.6636 15.2496L17.3485 14.915L16.5791 16.0712Z" fill="#016185"/>
<path d="M19.1594 16.3826L17.8301 14.2435L18.1621 13.6472L20.2113 14.7682L19.9665 15.1536L19.395 14.8762L19.0213 15.3996L19.4236 15.9777L19.1594 16.3826Z" fill="#016185"/>
<path d="M18.8124 15.1028L18.2512 14.2422L19.1339 14.6549L18.8124 15.1028Z" fill="#FDFEFA"/>
<defs>
<filter id="filter0_d_429_506" x="0.378872" y="0.422451" width="43.2423" height="43.2423" filterUnits="userSpaceOnUse" color-interpolation-filters="sRGB">
<feFlood flood-opacity="0" result="BackgroundImageFix"/>
<feColorMatrix in="SourceAlpha" type="matrix" values="0 0 0 0 0 0 0 0 0 0 0 0 0 0 0 0 0 0 127 0" result="hardAlpha"/>
<feOffset/>
<feGaussianBlur stdDeviation="0.810564"/>
<feColorMatrix type="matrix" values="0 0 0 0 0 0 0 0 0 0 0 0 0 0 0 0 0 0 0.25 0"/>
<feBlend mode="normal" in2="BackgroundImageFix" result="effect1_dropShadow_429_506"/>
<feBlend mode="normal" in="SourceGraphic" in2="effect1_dropShadow_429_506" result="shape"/>
</filter>
</defs>
</svg>
