<svg width="44" height="44" viewBox="0 0 44 44" fill="none" xmlns="http://www.w3.org/2000/svg">
<g filter="url(#filter0_d_2836_52958)">
<path fill-rule="evenodd" clip-rule="evenodd" d="M42 22C42 33.0457 33.0457 42 22 42C10.9543 42 2 33.0457 2 22C2 10.9543 10.9543 2 22 2C33.0457 2 42 10.9543 42 22ZM22 40.3789C32.1504 40.3789 40.3789 32.1504 40.3789 22C40.3789 11.8496 32.1504 3.62113 22 3.62113C11.8496 3.62113 3.62113 11.8496 3.62113 22C3.62113 32.1504 11.8496 40.3789 22 40.3789Z" fill="white"/>
</g>
<path d="M40.3791 22C40.3791 32.1503 32.1506 40.3788 22.0002 40.3788C11.8498 40.3788 3.62134 32.1503 3.62134 22C3.62134 11.8496 11.8498 3.62109 22.0002 3.62109C32.1506 3.62109 40.3791 11.8496 40.3791 22Z" fill="black"/>
<g clip-path="url(#clip0_2836_52958)">
<path fill-rule="evenodd" clip-rule="evenodd" d="M14.6392 29.5421L14.5635 29.8356C14.5212 29.996 14.391 30.559 14.273 31.0856C14.1519 31.6122 14.0369 32.0238 14.0127 31.9996C13.9885 31.9754 13.8432 31.4215 13.6919 30.7678L13.4195 29.5814L12.8899 29.5572L12.3633 29.536V32.9832H13.0654L13.1078 30.5196L13.3741 31.7514L13.6435 32.9832H14.3729L14.9055 30.5983L14.9449 31.7696L14.9842 32.9438L15.3171 32.968L15.65 32.9923V29.5421H14.6392ZM14.9993 30.4954C14.9721 30.559 14.9539 30.5378 14.9509 30.447C14.9479 30.3653 14.9661 30.3199 14.9933 30.3441C15.0175 30.3713 15.0205 30.4379 14.9993 30.4954Z" fill="white"/>
<path fill-rule="evenodd" clip-rule="evenodd" d="M18.1346 30.562C17.7835 30.3471 17.036 30.3441 16.6879 30.5559C15.9162 31.025 15.9495 32.505 16.7424 32.9196C17.0995 33.1042 17.7199 33.1042 18.071 32.9166C18.8549 32.4959 18.8942 31.025 18.1346 30.562ZM17.5384 32.4717C17.0874 32.5716 16.8211 32.2689 16.8211 31.6576C16.8211 31.476 16.8846 31.2823 16.9845 31.1552C17.3083 30.7436 17.8925 30.9706 17.9681 31.5395C18.0286 31.9965 17.841 32.4051 17.5384 32.4717Z" fill="white"/>
<path fill-rule="evenodd" clip-rule="evenodd" d="M21.4366 30.8585V32.9831H20.7314V32.06C20.7314 31.0643 20.6891 30.9493 20.338 30.9493C19.9446 30.9493 19.8386 31.1853 19.8053 32.1296L19.7751 32.9831H19.1667V30.4015H19.4815C19.7448 30.4015 19.7932 30.4287 19.7932 30.5649V30.7253L19.999 30.5649C20.1443 30.4499 20.3198 30.4015 20.5922 30.4015C20.9161 30.4015 21.0159 30.4408 21.2066 30.6315L21.4366 30.8585Z" fill="white"/>
<path fill-rule="evenodd" clip-rule="evenodd" d="M23.5066 32.3566C23.2978 32.5896 22.8953 32.5654 22.6925 32.3082C22.3868 31.9208 22.4443 31.8875 23.44 31.8875H24.351L24.3026 31.494C24.2511 31.0461 24.0302 30.689 23.7003 30.5195C23.3704 30.347 22.7016 30.3682 22.3898 30.5619C21.8723 30.8736 21.6816 31.7543 21.9813 32.4171C22.0963 32.6744 22.2143 32.7894 22.4685 32.9044C22.8438 33.0769 23.2705 33.1041 23.6004 32.977C23.894 32.8681 24.2511 32.52 24.2511 32.3415C24.2511 32.1357 23.7003 32.1447 23.5066 32.3566ZM22.6168 31.2428C22.6683 31.146 22.75 31.0401 22.7954 31.0098C22.9588 30.9009 23.3129 30.9493 23.4673 31.1067C23.7275 31.3639 23.6579 31.4184 23.0738 31.4184C22.529 31.4184 22.526 31.4184 22.6168 31.2428Z" fill="white"/>
<path fill-rule="evenodd" clip-rule="evenodd" d="M26.9084 30.4802C26.9084 30.5922 25.9005 33.4461 25.7734 33.6913C25.6433 33.9394 25.5162 34 25.1046 34C24.805 34 24.7989 33.9909 24.7989 33.7246C24.7989 33.4855 24.8231 33.4522 24.9956 33.4522C25.4012 33.4522 25.383 33.2101 24.8836 31.8088C24.6324 31.1006 24.4418 30.4923 24.4599 30.462C24.4781 30.4287 24.6324 30.4015 24.7989 30.4015C25.0108 30.4015 25.1258 30.4439 25.1772 30.5377C25.2166 30.6133 25.3467 31.0189 25.4647 31.4396C25.5797 31.8512 25.6887 32.175 25.7099 32.175C25.725 32.1599 25.8491 31.7543 25.9823 31.2731L26.2244 30.4015H26.5664C26.754 30.4015 26.9084 30.4378 26.9084 30.4802Z" fill="white"/>
<path fill-rule="evenodd" clip-rule="evenodd" d="M27.632 26.2402L28.5127 26.219L28.5369 25.9436C28.5672 25.5653 28.2675 25.0235 27.9255 24.8389C27.5805 24.6543 27.0237 24.6543 26.6726 24.8359C26.1248 25.1234 25.8736 26.101 26.1853 26.7244C26.261 26.8757 26.4456 27.0815 26.5969 27.1814C26.833 27.3388 26.945 27.363 27.3959 27.3388C27.8711 27.3116 27.9498 27.2813 28.1979 27.0422C28.5732 26.676 28.5641 26.4914 28.1737 26.4914C27.9709 26.4914 27.8257 26.5428 27.7319 26.6488C27.6441 26.7456 27.4897 26.8061 27.3263 26.8061C27.0509 26.8061 26.7543 26.5822 26.7543 26.3764C26.7543 26.2856 26.9208 26.2583 27.632 26.2402ZM26.945 25.4321C27.1871 25.19 27.411 25.19 27.6562 25.4321C27.9558 25.7317 27.9013 25.7892 27.2991 25.7892C26.6998 25.7892 26.6453 25.7317 26.945 25.4321Z" fill="white"/>
<path fill-rule="evenodd" clip-rule="evenodd" d="M25.3438 24.7722C25.1198 24.7722 25.032 24.8055 25.032 24.8872C25.032 24.9841 24.9866 24.975 24.7778 24.8479C24.4782 24.6663 24.0636 24.6542 23.7609 24.8176C23.2434 25.0961 23.0406 26.2582 23.4129 26.8121C23.7518 27.3205 24.4358 27.4809 24.8172 27.1389C24.9443 27.0239 24.9534 27.033 24.9534 27.2963C24.9534 27.4991 24.9049 27.6111 24.7808 27.6988C24.5599 27.8532 24.2209 27.8562 24.0938 27.7049C24.0333 27.6292 23.8578 27.5868 23.6187 27.5868C23.2918 27.5868 23.2464 27.605 23.2858 27.723C23.4885 28.295 24.4933 28.522 25.2136 28.1589C25.5919 27.9682 25.6585 27.6655 25.6585 26.1432V24.7722H25.3438ZM24.4449 26.7273C24.1029 26.7273 23.9365 26.4973 23.9365 26.0222C23.9365 25.8285 23.9909 25.5894 24.0605 25.4925C24.1453 25.3715 24.2603 25.32 24.4449 25.32C24.7869 25.32 24.9534 25.55 24.9534 26.0222C24.9534 26.4973 24.7869 26.7273 24.4449 26.7273Z" fill="white"/>
<path fill-rule="evenodd" clip-rule="evenodd" d="M22.7651 26.2521V27.2751H22.06V26.3792C22.06 25.671 22.0357 25.4622 21.9389 25.3654C21.7755 25.2019 21.5697 25.208 21.3518 25.3866C21.1914 25.5167 21.1702 25.6105 21.1369 26.4035L21.1036 27.2751H20.4983V24.7722H20.81C21.0794 24.7722 21.1217 24.7964 21.1217 24.9447C21.1217 25.093 21.1339 25.099 21.2216 24.9931C21.4668 24.6844 21.9752 24.6057 22.3747 24.8115C22.5018 24.8781 22.641 24.9961 22.6834 25.0809C22.7288 25.1626 22.7651 25.6892 22.7651 26.2521Z" fill="white"/>
<path fill-rule="evenodd" clip-rule="evenodd" d="M19.9747 27.1752C19.9414 27.1238 19.893 26.6244 19.8718 26.0706C19.8325 25.0809 19.8295 25.0597 19.6176 24.9023C19.2998 24.6633 18.5099 24.633 18.174 24.8418C17.9137 25.0052 17.7594 25.2262 17.7594 25.432C17.7594 25.6227 18.3162 25.5954 18.4857 25.3987C18.6431 25.211 19.0274 25.1899 19.1667 25.3593C19.321 25.544 19.1394 25.6892 18.6733 25.7528C17.9258 25.8527 17.6807 26.0736 17.6807 26.6486C17.6807 27.1147 17.9409 27.3538 18.4494 27.3538C18.7157 27.3538 18.8943 27.3054 19.0305 27.1964C19.2 27.0663 19.2363 27.0602 19.2756 27.1571C19.3059 27.2388 19.433 27.2751 19.6781 27.2751C19.9475 27.2751 20.0201 27.2509 19.9747 27.1752ZM18.637 26.8696C18.4494 26.8484 18.4252 26.809 18.4252 26.5699C18.4252 26.3127 18.4433 26.2915 18.7763 26.2068C19.2575 26.0796 19.2454 26.0766 19.2454 26.3006C19.2454 26.582 18.9064 26.8998 18.637 26.8696Z" fill="white"/>
<path fill-rule="evenodd" clip-rule="evenodd" d="M17.4477 25.0447C17.4477 25.3776 17.4356 25.3988 17.2328 25.3988C16.7879 25.4018 16.6638 25.6681 16.6638 26.6154V27.2752H15.9617V24.7723H16.3127C16.6093 24.7723 16.6638 24.7965 16.6638 24.9236C16.6638 25.0659 16.6789 25.0628 16.8575 24.8873C16.9634 24.7814 17.139 24.6936 17.2479 24.6936C17.4325 24.6936 17.4477 24.7208 17.4477 25.0447Z" fill="white"/>
<path fill-rule="evenodd" clip-rule="evenodd" d="M14.4182 23.8371C13.822 23.6737 13.1622 23.8008 12.7779 24.1579C12.4147 24.4999 12.2604 24.9145 12.2573 25.5591C12.2573 26.2673 12.4662 26.7728 12.8929 27.0996C13.132 27.2812 13.2651 27.3175 13.7736 27.3417C14.5121 27.375 14.9146 27.2025 15.2384 26.7122C15.42 26.4338 15.4563 26.2885 15.4805 25.7286C15.5259 24.6845 15.1658 24.0459 14.4182 23.8371ZM13.8886 26.7274C13.3045 26.7274 12.9897 26.3127 12.9897 25.5501C12.9897 25.0658 13.1501 24.6966 13.4407 24.518C14.0944 24.1125 14.7875 24.6663 14.7875 25.5924C14.7875 26.3127 14.4606 26.7274 13.8886 26.7274Z" fill="white"/>
<path fill-rule="evenodd" clip-rule="evenodd" d="M32.7165 11.5616C32.6408 11.6736 31.2032 13.1052 29.5235 14.7395L26.4668 17.7175L26.8148 17.7629C27.0085 17.7901 28.0072 17.8113 29.0363 17.8113C31.1064 17.8113 31.2426 17.8386 31.527 18.3046C31.8569 18.8494 31.6269 19.5667 31.0489 19.7997C30.7644 19.9117 30.3437 19.9208 27.0993 19.8724C23.0589 19.8149 23.1588 19.827 22.8955 19.2761C22.7805 19.0371 22.7654 18.6769 22.7654 16.5493C22.7654 15.1995 22.7896 13.4835 22.8168 12.7329L22.8683 11.371L23.1165 11.0986C23.3283 10.8656 23.4252 10.8232 23.8004 10.7929C24.209 10.7596 24.2514 10.7717 24.5359 11.032L24.8385 11.3104L24.8748 13.7922L24.9142 16.2709L28.0617 13.2081C29.7929 11.5223 31.288 10.112 31.3848 10.0726C31.6602 9.96366 32.0537 9.9788 32.3139 10.115C32.8012 10.3662 33.01 11.1228 32.7165 11.5616Z" fill="#F16E00"/>
<path fill-rule="evenodd" clip-rule="evenodd" d="M21.8423 19.9178C21.4519 20.6412 20.3684 20.6321 19.9719 19.9027C19.8508 19.6848 19.8266 19.361 19.7933 17.4664L19.754 15.2843L16.7427 18.3501C13.5285 21.6217 13.4438 21.6944 12.8536 21.5612C12.5026 21.4825 12.1485 21.1405 12.0516 20.7895C11.8912 20.2053 11.9124 20.1781 15.2234 16.8157L18.3194 13.6681H16.0254C13.9976 13.6681 13.701 13.653 13.465 13.532C13.0625 13.3262 12.8718 13.0205 12.8718 12.5726C12.8718 12.1277 13.0625 11.822 13.465 11.6132C13.7101 11.4891 14.0521 11.477 17.3964 11.48C20.2746 11.483 21.1159 11.5072 21.3066 11.589C21.4428 11.6465 21.6395 11.7887 21.7485 11.9037L21.9452 12.1156L21.9633 15.8835C21.9845 19.4185 21.9754 19.6666 21.8423 19.9178Z" fill="white"/>
</g>
<defs>
<filter id="filter0_d_2836_52958" x="0.378872" y="0.378872" width="43.2423" height="43.2423" filterUnits="userSpaceOnUse" color-interpolation-filters="sRGB">
<feFlood flood-opacity="0" result="BackgroundImageFix"/>
<feColorMatrix in="SourceAlpha" type="matrix" values="0 0 0 0 0 0 0 0 0 0 0 0 0 0 0 0 0 0 127 0" result="hardAlpha"/>
<feOffset/>
<feGaussianBlur stdDeviation="0.810564"/>
<feColorMatrix type="matrix" values="0 0 0 0 0 0 0 0 0 0 0 0 0 0 0 0 0 0 0.25 0"/>
<feBlend mode="normal" in2="BackgroundImageFix" result="effect1_dropShadow_2836_52958"/>
<feBlend mode="normal" in="SourceGraphic" in2="effect1_dropShadow_2836_52958" result="shape"/>
</filter>
<clipPath id="clip0_2836_52958">
<rect width="20.8494" height="24" fill="white" transform="translate(12 10)"/>
</clipPath>
</defs>
</svg>
