<svg width="44" height="44" viewBox="0 0 44 44" fill="none" xmlns="http://www.w3.org/2000/svg">
<g filter="url(#filter0_d_3743_101334)">
<path fill-rule="evenodd" clip-rule="evenodd" d="M42 22C42 33.0457 33.0457 42 22 42C10.9543 42 2 33.0457 2 22C2 10.9543 10.9543 2 22 2C33.0457 2 42 10.9543 42 22ZM22 40.3789C32.1504 40.3789 40.3789 32.1504 40.3789 22C40.3789 11.8496 32.1504 3.62113 22 3.62113C11.8496 3.62113 3.62113 11.8496 3.62113 22C3.62113 32.1504 11.8496 40.3789 22 40.3789Z" fill="white"/>
</g>
<path d="M40.3791 22C40.3791 32.1503 32.1506 40.3788 22.0002 40.3788C11.8498 40.3788 3.62134 32.1503 3.62134 22C3.62134 11.8496 11.8498 3.62109 22.0002 3.62109C32.1506 3.62109 40.3791 11.8496 40.3791 22Z" fill="#F9DC4A"/>
<path d="M11.2949 25.4147L15.0872 20.4069C15.3008 20.0806 15.5799 19.8022 15.9068 19.5896C16.0725 19.4859 16.2659 19.4352 16.4612 19.4443C16.6564 19.4534 16.8443 19.5219 16.9996 19.6405C17.2821 19.9021 17.3006 20.3351 17.3006 20.7264L17.289 22.993C17.289 23.0485 17.3029 23.1203 17.3585 23.1249C17.414 23.1296 17.4233 23.0948 17.4441 23.067L19.4862 20.3513C19.6499 20.1024 19.8597 19.8871 20.1043 19.7169C20.0858 19.8985 20.1239 20.0814 20.2135 20.2405C20.303 20.3995 20.4396 20.527 20.6045 20.6054C20.7693 20.6837 20.9544 20.7092 21.1343 20.6782C21.3142 20.6472 21.4801 20.5613 21.6092 20.4323C21.6277 21.2473 21.6347 22.053 21.6347 22.8818C21.6347 23.2916 21.6347 23.6991 21.6347 24.1089C21.6347 24.3126 21.6347 24.5164 21.6347 24.7201C21.6347 24.822 21.6347 24.9238 21.6347 25.028C21.6405 25.0872 21.6266 25.1465 21.5953 25.197C21.4217 25.4286 21.1068 25.4286 20.8475 25.4054C20.7185 25.4065 20.5921 25.3694 20.484 25.2989C20.4235 25.23 20.3785 25.1488 20.3521 25.0609C20.3257 24.973 20.3186 24.8805 20.3312 24.7896V21.4093C20.3312 21.3376 20.3173 21.245 20.2479 21.2264C20.1784 21.2079 20.1298 21.2681 20.0904 21.3214L17.553 24.6946C17.3837 24.9738 17.1443 25.2037 16.8584 25.3614C16.5597 25.4911 16.143 25.4124 16.0133 25.1114C15.97 24.9946 15.9519 24.8699 15.9601 24.7456L15.923 21.458C15.923 21.37 15.8767 21.245 15.7911 21.2704C15.7606 21.2823 15.7353 21.3044 15.7193 21.3329L13.0499 24.9678C12.9686 25.108 12.8554 25.2271 12.7194 25.3152C12.5834 25.4033 12.4285 25.458 12.2673 25.4749C11.9423 25.4722 11.6177 25.4521 11.2949 25.4147Z" fill="#D93834"/>
<path d="M12.83 17.5777H17.2729C17.4364 17.5528 17.6036 17.5812 17.7498 17.6587C17.8553 17.7176 17.9386 17.8096 17.9867 17.9204C18.0348 18.0313 18.0451 18.1549 18.0161 18.2722C17.9897 18.4106 17.9132 18.5343 17.8013 18.6197C17.6894 18.7052 17.5498 18.7463 17.4095 18.7353C16.6964 18.7353 15.9856 18.7353 15.2725 18.7353C14.8095 18.7353 14.3302 18.7353 13.8579 18.7353C13.7832 18.7285 13.7081 18.744 13.6422 18.7798C13.5762 18.8157 13.5224 18.8703 13.4875 18.9367C12.1277 21.0158 10.7671 23.0933 9.40576 25.1693C9.36343 25.2534 9.29641 25.3227 9.21368 25.3678C9.13094 25.4129 9.03641 25.4317 8.94272 25.4216C8.60701 25.4077 8.26899 25.4216 7.93328 25.4216C7.86846 25.4216 7.77354 25.4216 7.74344 25.3962C7.68093 25.3198 7.77585 25.2596 7.81521 25.2017C8.47273 24.2447 9.13257 23.2901 9.79472 22.3378L12.1099 19.0015C12.1586 18.9321 12.2512 18.8626 12.2118 18.77C12.1724 18.6774 12.0567 18.726 11.9803 18.726C10.7301 18.726 9.47908 18.726 8.22732 18.726C8.09688 18.7381 7.96625 18.7049 7.85744 18.632C7.74863 18.559 7.6683 18.4508 7.62999 18.3255C7.59113 18.2166 7.5872 18.0983 7.61874 17.9871C7.65027 17.8759 7.71572 17.7773 7.80595 17.705C7.95022 17.6063 8.12578 17.5643 8.29909 17.5869L12.83 17.5777Z" fill="#D93834"/>
<path d="M31.1156 23.7431H33.0881C33.1545 23.7499 33.221 23.7326 33.2757 23.6945C33.3158 23.6458 33.3364 23.5839 33.3335 23.5208C33.3562 23.2121 33.3136 22.9021 33.2085 22.6109C33.1039 22.3159 32.9136 22.0588 32.6621 21.8724C32.4867 21.7526 32.2876 21.672 32.0782 21.636C31.8689 21.6001 31.6543 21.6096 31.449 21.664C31.036 21.7775 30.6812 22.043 30.4557 22.4072C30.2457 22.7644 30.1354 23.1713 30.1362 23.5856C30.1078 23.9727 30.1879 24.36 30.3678 24.7039C30.506 24.9242 30.6912 25.1113 30.9101 25.2518C31.129 25.3923 31.3763 25.4827 31.6342 25.5165C31.9805 25.5633 32.333 25.53 32.6644 25.4193C32.7479 25.3921 32.8298 25.3604 32.9099 25.3244C32.9654 25.3012 33.0904 25.2665 33.1252 25.2156C33.1599 25.1646 33.1252 25.0489 33.1043 24.9956C33.085 24.9082 33.0571 24.8229 33.021 24.7409C33.0071 24.7009 32.9802 24.6667 32.9446 24.6437C32.9126 24.6345 32.8789 24.633 32.8463 24.6394C32.8137 24.6459 32.7831 24.6601 32.7571 24.6807C32.5789 24.7822 32.382 24.8467 32.1783 24.8701C31.9746 24.8936 31.7683 24.8756 31.5717 24.8173C31.3759 24.7536 31.2036 24.633 31.0766 24.471C30.9496 24.3089 30.8737 24.1128 30.8586 23.9075C30.8553 23.8687 30.8642 23.8298 30.884 23.7963C30.906 23.7755 30.9324 23.7599 30.9613 23.7507C30.9902 23.7414 31.0207 23.7388 31.0507 23.7431H31.1156ZM30.9419 22.9374C30.9955 22.7569 31.1043 22.5978 31.2529 22.4824C31.4016 22.3669 31.5827 22.301 31.7708 22.2938C31.9499 22.2774 32.1288 22.3266 32.2744 22.4322C32.42 22.5378 32.5224 22.6926 32.5626 22.8679C32.6135 23.0508 32.5626 23.1133 32.3681 23.0995C32.1736 23.0856 31.9653 23.0995 31.7638 23.0995H31.0994C30.9882 23.1041 30.9141 23.0809 30.9419 22.9374Z" fill="#D93834"/>
<path d="M26.1286 23.2824C26.1155 22.99 26.0285 22.7058 25.8757 22.4562C25.723 22.2066 25.5095 21.9998 25.2551 21.855C25.0008 21.7103 24.714 21.6324 24.4213 21.6285C24.1287 21.6247 23.8399 21.695 23.5819 21.833C22.7947 22.2359 22.3965 23.3009 22.6859 24.2246C22.9961 25.2109 23.8204 25.7018 24.7696 25.4702C25.6008 25.2711 26.124 24.5441 26.1217 23.5694C26.1286 23.4722 26.1333 23.3773 26.1286 23.2824ZM25.2905 24.2293C25.21 24.4269 25.0712 24.5954 24.8925 24.712C24.7137 24.8287 24.5037 24.888 24.2903 24.8822C24.0599 24.853 23.845 24.75 23.678 24.5884C23.5111 24.4269 23.401 24.2156 23.3643 23.9862C23.266 23.611 23.3097 23.2128 23.487 22.8679C23.5639 22.6954 23.6904 22.5496 23.8503 22.449C24.0102 22.3485 24.1964 22.2976 24.3853 22.303C24.5731 22.2981 24.7582 22.3495 24.9166 22.4506C25.075 22.5517 25.1996 22.6978 25.2743 22.8702C25.3902 23.0878 25.4462 23.3324 25.4364 23.5787C25.4396 23.804 25.3896 24.0269 25.2905 24.2293Z" fill="#D93834"/>
<path d="M35.0514 24.2247C35.3639 23.412 35.6556 22.6851 35.9149 21.9465C36.0029 21.6988 36.1465 21.6826 36.3525 21.6965C36.4359 21.6965 36.6465 21.6965 36.6419 21.7729C36.574 22.0874 36.4842 22.3968 36.3733 22.6989C35.9473 23.6922 35.5908 24.7155 35.1278 25.6948C34.8913 26.2692 34.4367 26.7263 33.8637 26.9659C33.6807 27.0377 33.6136 26.9983 33.5488 26.827C33.4099 26.4589 33.4029 26.4635 33.7572 26.2713C34.0988 26.0706 34.3735 25.7734 34.5466 25.417C34.5915 25.3447 34.6174 25.2622 34.6219 25.1772C34.6263 25.0922 34.6092 25.0074 34.5721 24.9308C34.1669 23.9561 33.7803 22.9606 33.3775 21.9766C33.2895 21.7613 33.3034 21.6826 33.5673 21.6918C34.0442 21.708 34.0303 21.6918 34.2132 22.141C34.4749 22.7985 34.7481 23.4699 35.0514 24.2247Z" fill="#D93834"/>
<path d="M29.673 24.0765C29.673 24.4423 29.673 24.8058 29.673 25.1693C29.6805 25.2297 29.6726 25.291 29.6499 25.3475C29.6408 25.368 29.6274 25.3862 29.6106 25.401C29.5938 25.4158 29.574 25.4268 29.5526 25.4332C29.5156 25.4332 29.1544 25.4471 29.1266 25.4332C29.0836 25.4282 29.0435 25.4086 29.0132 25.3776C28.9825 25.3409 28.9639 25.2957 28.9599 25.248C28.9565 25.2041 28.9565 25.1599 28.9599 25.116C28.9808 24.4654 28.9599 23.8125 28.9599 23.162C28.9599 22.6063 28.6844 22.2891 28.2237 22.2845C28.108 22.2845 27.9935 22.3076 27.8869 22.3525C27.7803 22.3975 27.6838 22.4634 27.6031 22.5462C27.5224 22.6291 27.4591 22.7273 27.4169 22.8351C27.3748 22.9428 27.3547 23.0579 27.3578 23.1735C27.3454 23.8357 27.3454 24.4971 27.3578 25.1577C27.3578 25.3637 27.3161 25.4517 27.0892 25.4401C26.5753 25.4193 26.6586 25.4888 26.6517 25.0188C26.6354 23.9839 26.6933 22.949 26.6077 21.9141C26.6077 21.84 26.6077 21.7566 26.6887 21.7242C26.7334 21.7081 26.7802 21.6987 26.8276 21.6964L26.9712 21.6756C27.0387 21.6582 27.1096 21.6582 27.1772 21.6756C27.2166 21.6946 27.2506 21.7233 27.2761 21.7589C27.3016 21.7945 27.3177 21.8359 27.3231 21.8793C27.3485 21.9789 27.455 21.8793 27.5129 21.8469C27.8133 21.6692 28.1652 21.599 28.5108 21.6478C28.828 21.69 29.1195 21.8449 29.3321 22.0842C29.5446 22.3235 29.664 22.6313 29.6684 22.9513C29.6892 23.324 29.6684 23.6991 29.6684 24.0718L29.673 24.0765Z" fill="#D93834"/>
<path d="M20.8754 17.1887C21.411 17.1818 21.9374 17.3284 22.3924 17.611C22.8473 17.8937 23.2119 18.3007 23.443 18.7839C23.459 18.8278 23.4649 18.8748 23.4604 18.9213C23.4558 18.9678 23.4409 19.0127 23.4167 19.0527C23.3925 19.0927 23.3596 19.1268 23.3205 19.1524C23.2813 19.178 23.237 19.1945 23.1906 19.2006C23.0726 19.2006 23.0726 19.0872 23.0402 19.02C22.8151 18.532 22.43 18.1355 21.9487 17.8963C21.4674 17.6571 20.9188 17.5896 20.3939 17.705C20.2037 17.7376 20.0209 17.8043 19.8544 17.9018C19.6599 18.0245 19.6229 17.9018 19.5395 17.7675C19.4562 17.6332 19.5002 17.536 19.6553 17.4619C20.0363 17.2804 20.4534 17.187 20.8754 17.1887Z" fill="#D93935"/>
<path d="M20.8753 18.2282C21.2386 18.2207 21.5954 18.3251 21.8973 18.5272C22.1992 18.7293 22.4317 19.0194 22.5631 19.358C22.5846 19.4699 22.5619 19.5857 22.4997 19.6812C22.4375 19.7766 22.3407 19.8442 22.2297 19.8697C22.1394 19.8697 22.1557 19.8003 22.1441 19.7493C22.1028 19.5557 22.0169 19.3745 21.8931 19.2201C21.7692 19.0656 21.611 18.9423 21.431 18.86C21.251 18.7776 21.0543 18.7386 20.8565 18.7458C20.6587 18.7531 20.4653 18.8066 20.2919 18.902C20.116 18.9969 20.0951 18.8719 20.0604 18.7723C20.0257 18.6727 19.8474 18.5524 20.0604 18.4412C20.3067 18.2952 20.5891 18.2213 20.8753 18.2282Z" fill="#D93935"/>
<path d="M20.542 19.6475C20.8667 19.678 21.174 19.8082 21.4218 20.0202C21.5306 20.1175 21.5699 20.2193 21.438 20.3282C21.3485 20.4167 21.2356 20.4778 21.1126 20.5045C20.9896 20.5311 20.8615 20.5222 20.7434 20.4787C20.6187 20.4421 20.5079 20.3689 20.4254 20.2686C20.3428 20.1682 20.2923 20.0454 20.2804 19.9161C20.2665 19.7239 20.3197 19.6081 20.542 19.6475Z" fill="#DA3B37"/>
<defs>
<filter id="filter0_d_3743_101334" x="0.378872" y="0.378872" width="43.2423" height="43.2423" filterUnits="userSpaceOnUse" color-interpolation-filters="sRGB">
<feFlood flood-opacity="0" result="BackgroundImageFix"/>
<feColorMatrix in="SourceAlpha" type="matrix" values="0 0 0 0 0 0 0 0 0 0 0 0 0 0 0 0 0 0 127 0" result="hardAlpha"/>
<feOffset/>
<feGaussianBlur stdDeviation="0.810564"/>
<feColorMatrix type="matrix" values="0 0 0 0 0 0 0 0 0 0 0 0 0 0 0 0 0 0 0.25 0"/>
<feBlend mode="normal" in2="BackgroundImageFix" result="effect1_dropShadow_3743_101334"/>
<feBlend mode="normal" in="SourceGraphic" in2="effect1_dropShadow_3743_101334" result="shape"/>
</filter>
</defs>
</svg>
