<svg width="36" height="20" viewBox="0 0 36 20" fill="none" xmlns="http://www.w3.org/2000/svg">
<path d="M3.82511 0C1.71256 0 0 1.71256 0 3.82511V16.1749C0 18.2874 1.71256 20 3.82511 20H31.8189C33.9314 20 35.644 18.2874 35.644 16.1749V3.82511C35.644 1.71256 33.9314 0 31.8189 0H3.82511Z" fill="#0166B2"/>
<path d="M26.9225 11.3191C26.5177 12.2703 25.8476 12.9873 25.0337 13.5714C23.8035 14.4542 22.4181 14.9556 20.9717 15.2951C18.5795 15.8566 16.1525 15.9422 13.715 15.8104C11.4023 15.6849 9.10578 15.4123 6.83879 14.9069C6.56018 14.8449 6.283 14.777 6.00535 14.7091C5.92295 14.6889 5.80579 14.6756 5.82389 14.5605C5.84247 14.4453 5.95772 14.4694 6.04202 14.4793C6.86785 14.5787 7.69272 14.6894 8.51998 14.779C11.1575 15.0658 13.7993 15.1726 16.4439 14.8956C18.1761 14.714 19.8792 14.3868 21.4751 13.627C22.5515 13.1147 23.4987 12.4367 24.106 11.3452C25.0147 9.71202 24.758 7.71861 23.4668 6.26402C22.7339 5.43832 21.8128 4.93197 20.8141 4.5511C20.5059 4.43349 20.193 4.32917 19.8768 4.21648C19.9263 4.11708 19.9968 4.13578 20.0535 4.13874C21.7852 4.23174 23.4425 4.60867 24.9523 5.52935C25.8486 6.07605 26.5453 6.81712 26.9597 7.81752C26.5144 8.33518 26.0719 8.85629 25.6214 9.36904C25.4771 9.5334 25.4719 9.6633 25.6224 9.83061C26.0624 10.3212 26.4901 10.8226 26.9225 11.3191Z" fill="#EF6F23"/>
<path d="M11.2174 7.31452C11.155 7.74262 11.0859 8.16975 11.0336 8.59884C11.0159 8.74351 10.965 8.78632 10.825 8.7878C10.2973 8.7937 10.3006 8.79961 10.3892 8.27604C10.5025 7.60779 10.6149 6.93955 10.7164 6.26934C10.744 6.08678 10.7992 6.01001 10.9964 6.0169C11.4522 6.03314 11.4522 6.02084 11.6165 6.4706C11.7303 6.78258 11.846 7.09357 11.9642 7.41342C12.0508 7.38144 12.0532 7.31009 12.0727 7.25694C12.1699 6.99811 12.2628 6.73731 12.3571 6.477C12.5228 6.01838 12.5228 6.02724 12.9953 6.01789C13.1639 6.01444 13.2277 6.06365 13.2543 6.23785C13.3744 7.02074 13.5063 7.80167 13.6387 8.5826C13.6625 8.72235 13.6515 8.78632 13.4848 8.78829C12.9714 8.79518 12.9714 8.80305 12.8971 8.2844C12.8529 7.97734 12.8076 7.67029 12.7614 7.36372C12.7586 7.34355 12.7409 7.32633 12.7138 7.27909C12.53 7.73721 12.3528 8.17172 12.1823 8.60967C12.1409 8.71596 12.1037 8.78731 11.9694 8.78928C11.828 8.79124 11.8003 8.70415 11.7622 8.60278C11.6003 8.17073 11.4355 7.73967 11.2722 7.30861C11.2536 7.31058 11.2355 7.31255 11.2174 7.31452Z" fill="#FAFCFD"/>
<path d="M26.9229 11.3192C26.4905 10.8222 26.0623 10.3212 25.6228 9.83114C25.4723 9.66383 25.4775 9.53392 25.6218 9.36957C26.0723 8.85682 26.5148 8.33571 26.9601 7.81804C27.0706 7.79688 27.1349 7.86528 27.1987 7.94303C27.573 8.39673 27.914 8.87601 28.2326 9.37203C28.3188 9.50636 28.315 9.62151 28.2288 9.75339C27.9016 10.2538 27.5449 10.7311 27.1625 11.1883C27.0991 11.2651 27.0306 11.3295 26.9229 11.3192Z" fill="#FAFCFD"/>
<path d="M10.1711 12.1104C10.4998 11.2212 10.815 10.368 11.1298 9.51372C11.1556 9.44434 11.1951 9.40891 11.2703 9.41038C11.4523 9.41333 11.6347 9.4153 11.8166 9.40989C11.9109 9.40694 11.9361 9.46943 11.9623 9.5398C12.2576 10.3414 12.551 11.144 12.851 11.9441C12.9006 12.0755 12.8791 12.1242 12.7405 12.1119C12.6696 12.1055 12.5967 12.1011 12.5272 12.1124C12.2814 12.1532 12.1133 12.0868 12.0786 11.8029C12.0624 11.6705 11.9771 11.6365 11.8566 11.6444C11.7304 11.6528 11.6023 11.6572 11.4766 11.6439C11.2027 11.6154 10.9689 11.6346 10.9365 11.9967C10.9284 12.0848 10.8674 12.1134 10.7836 12.1114C10.5936 12.1075 10.404 12.1104 10.1711 12.1104ZM11.5409 10.2164C11.4437 10.5008 11.367 10.7228 11.2927 10.9457C11.2765 10.9949 11.2313 11.082 11.2999 11.0903C11.4623 11.1105 11.629 11.1036 11.7928 11.0928C11.8414 11.0894 11.8171 11.0278 11.8047 10.9914C11.7247 10.7547 11.6437 10.5181 11.5409 10.2164Z" fill="#FAFCFD"/>
<path d="M21.6682 11.1888C21.6682 11.4334 21.6601 11.6784 21.6711 11.9225C21.6782 12.076 21.6206 12.1429 21.482 12.1075C21.3248 12.0671 21.1172 12.233 21.0076 11.9884C21.0062 11.9855 20.9533 12.0002 20.9305 12.0165C20.6004 12.2492 20.268 12.2187 19.9594 11.9904C19.6303 11.7468 19.5384 11.3866 19.6036 10.99C19.7084 10.3542 20.3399 10.0344 20.8848 10.3336C20.9614 10.3759 20.9834 10.3523 21.0591 10.3104C21.2224 10.2209 21.4287 10.2671 21.6149 10.2873C21.6958 10.2962 21.6658 10.3946 21.6668 10.4546C21.6701 10.6997 21.6682 10.9442 21.6682 11.1888ZM20.6404 10.7809C20.4104 10.7828 20.2399 10.9669 20.2466 11.2045C20.2532 11.4319 20.4223 11.6056 20.6395 11.609C20.8586 11.6125 21.0524 11.4181 21.0529 11.1937C21.0538 10.9688 20.8638 10.7784 20.6404 10.7809Z" fill="#FAFCFD"/>
<path d="M15.3217 8.85883C14.8983 8.83964 14.5359 8.69496 14.3349 8.26981C14.1129 7.79987 14.2787 7.25563 14.7211 6.99877C15.074 6.79456 15.446 6.77881 15.8194 6.93037C16.2142 7.0903 16.4395 7.44213 16.4328 7.85991C16.4261 8.28703 16.178 8.63099 15.7703 8.7796C15.6274 8.83225 15.4793 8.85095 15.3217 8.85883ZM15.3355 8.27128C15.5546 8.27227 15.7403 8.08429 15.747 7.85499C15.7537 7.61387 15.5679 7.41211 15.3384 7.41113C15.1188 7.41015 14.9321 7.59861 14.9264 7.82743C14.9202 8.06707 15.1069 8.2703 15.3355 8.27128Z" fill="#FAFCFD"/>
<path d="M18.1453 8.85965C17.8281 8.84932 17.5843 8.79372 17.3728 8.63035C16.8361 8.21503 16.8747 7.37112 17.4514 7.01288C17.791 6.80178 18.1563 6.77964 18.5263 6.91102C18.945 7.05914 19.195 7.42525 19.1888 7.85581C19.1826 8.29967 18.9173 8.65692 18.4835 8.79126C18.3558 8.83111 18.2206 8.84489 18.1453 8.85965ZM18.5025 7.85139C18.5082 7.61174 18.3187 7.40999 18.0896 7.41097C17.8691 7.41196 17.6862 7.60042 17.6819 7.83072C17.6776 8.07282 17.8639 8.2726 18.0929 8.27113C18.3125 8.27014 18.4973 8.0802 18.5025 7.85139Z" fill="#FAFCFD"/>
<path d="M13.3833 11.4545C13.3833 11.3241 13.3842 11.1932 13.3828 11.0628C13.3814 10.9467 13.4109 10.8428 13.229 10.7995C13.0885 10.7661 13.1799 10.5732 13.1656 10.4526C13.158 10.3896 13.1299 10.2833 13.238 10.2809C13.4204 10.2765 13.3828 10.1451 13.3823 10.0388C13.3799 9.72286 13.4352 9.43352 13.72 9.25243C13.8062 9.19781 13.9019 9.14861 13.9995 9.12499C14.1457 9.08906 14.3291 9.05314 14.4248 9.1801C14.5129 9.29721 14.4601 9.48076 14.4496 9.6333C14.4405 9.76567 14.3424 9.68005 14.2848 9.67661C14.1819 9.6707 14.0843 9.68497 14.05 9.79471C14.0038 9.94233 13.9848 10.1037 14.05 10.2464C14.0772 10.306 14.1838 10.2828 14.2505 10.272C14.4834 10.2331 14.462 10.3891 14.4563 10.5402C14.451 10.679 14.5029 10.8591 14.2615 10.8187C14.0648 10.7858 14.001 10.8655 14.0138 11.0702C14.031 11.3546 14.0129 11.641 14.0205 11.9264C14.0238 12.0583 13.9919 12.1104 13.8514 12.1144C13.3828 12.1267 13.3833 12.1331 13.3833 11.6503C13.3833 11.5854 13.3833 11.5199 13.3833 11.4545Z" fill="#FAFCFD"/>
<path d="M20.6699 7.85532C20.7971 7.57976 20.9157 7.35045 21.009 7.1113C21.0714 6.95088 21.1567 6.88248 21.3267 6.90069C21.4748 6.91644 21.6258 6.90414 21.7715 6.90414C21.8196 6.98681 21.7601 7.03552 21.7339 7.08768C21.4805 7.59501 21.2171 8.09694 20.9733 8.60919C20.8995 8.76419 20.8018 8.7888 20.6561 8.78831C20.5175 8.78781 20.4261 8.76272 20.357 8.61755C20.1137 8.1053 19.8565 7.59994 19.5993 7.09457C19.5317 6.96171 19.5169 6.90168 19.7031 6.89971C20.227 6.89479 20.2265 6.88691 20.4475 7.37309C20.5137 7.51874 20.5813 7.66292 20.6699 7.85532Z" fill="#FAFCFD"/>
<path d="M29.1697 7.85545C29.0697 8.21418 28.9273 8.54977 28.7525 8.87061C28.7044 8.95918 28.6425 8.9021 28.6063 8.84305C28.2882 8.32539 27.9305 7.83774 27.5443 7.37174C27.4652 7.27627 27.4752 7.18376 27.5543 7.08682C27.7219 6.88015 27.8862 6.67102 28.0448 6.45746C28.1148 6.36347 28.1686 6.3492 28.2477 6.44417C28.5787 6.84128 28.8749 7.26397 29.1278 7.71816C29.1507 7.759 29.1564 7.81018 29.1697 7.85545Z" fill="#EF6F23"/>
<path d="M29.1572 11.2685C29.1605 11.394 29.1258 11.4584 29.0891 11.5219C28.8538 11.9298 28.5819 12.3097 28.2885 12.6753C28.1932 12.7944 28.1256 12.8313 28.0208 12.6803C27.8784 12.4746 27.7208 12.2802 27.5603 12.0888C27.4636 11.9736 27.4679 11.8762 27.5613 11.766C27.937 11.3231 28.2809 10.8551 28.5833 10.3557C28.6614 10.2273 28.7238 10.2169 28.7938 10.365C28.9395 10.6726 29.0805 10.9816 29.1572 11.2685Z" fill="#EF6F23"/>
<path d="M19.1484 11.5475C19.1518 11.6012 19.1551 11.6332 19.1556 11.6656C19.1627 12.1115 19.0903 12.1872 18.6589 12.1646C18.2593 12.1439 17.9573 11.951 17.8068 11.5653C17.6616 11.1937 17.7197 10.8345 17.9864 10.5383C18.2655 10.2288 18.6203 10.1555 19.0113 10.2588C19.1318 10.2908 19.2313 10.7228 19.1389 10.8075C19.0784 10.8626 19.0227 10.7912 18.966 10.7779C18.6712 10.7105 18.4307 10.8616 18.4002 11.1386C18.3693 11.4235 18.5531 11.6302 18.8308 11.6322C18.9375 11.6332 19.028 11.579 19.1484 11.5475Z" fill="#FAFCFD"/>
<path d="M15.4642 10.5332C15.6423 10.3629 15.7847 10.2527 15.9772 10.2379C16.1076 10.2281 16.1977 10.2438 16.1758 10.4136C16.1662 10.4859 16.1681 10.5612 16.1753 10.6341C16.191 10.7915 16.1524 10.8412 15.981 10.8122C15.6657 10.7595 15.4895 10.9239 15.4699 11.2649C15.4566 11.4932 15.4623 11.7225 15.4671 11.9514C15.4695 12.0621 15.4414 12.1059 15.3228 12.1132C14.836 12.1423 14.836 12.1472 14.836 11.6428C14.836 11.2501 14.8427 10.8575 14.8327 10.4653C14.8289 10.3108 14.8818 10.2591 15.0232 10.2758C15.0856 10.2832 15.1499 10.2768 15.2132 10.2773C15.3523 10.2783 15.5209 10.234 15.4642 10.5332Z" fill="#FAFCFD"/>
<path d="M17.2322 11.1985C17.2322 11.4514 17.2279 11.7043 17.2341 11.9573C17.2369 12.0729 17.1984 12.1074 17.085 12.1138C16.5992 12.1398 16.5997 12.1443 16.5997 11.6438C16.5997 11.2521 16.6059 10.8604 16.5968 10.4692C16.5935 10.3196 16.6388 10.2753 16.784 10.2739C17.2327 10.269 17.2327 10.2626 17.2327 10.7335C17.2327 10.8885 17.2327 11.0435 17.2322 11.1985Z" fill="#FAFCFD"/>
<path d="M29.5057 8.36273C29.9339 9.18549 29.9329 9.95657 29.4686 10.7557C29.3562 10.3596 29.2247 9.99742 29.078 9.64214C29.0504 9.57571 29.0761 9.51124 29.1033 9.45318C29.2628 9.11463 29.3947 8.76525 29.5057 8.36273Z" fill="#EF6F23"/>
<path d="M16.908 9.93675C16.7147 9.93183 16.548 9.7473 16.5594 9.55096C16.5703 9.35709 16.7308 9.20552 16.9213 9.20848C17.1242 9.21143 17.2752 9.37874 17.2652 9.58885C17.2562 9.78323 17.0938 9.94168 16.908 9.93675Z" fill="#FAFCFD"/>
</svg>
