<svg width="36" height="20" viewBox="0 0 36 20" fill="none" xmlns="http://www.w3.org/2000/svg">
<path d="M3.92594 0C1.81339 0 0.10083 1.71256 0.10083 3.82511V16.1749C0.10083 18.2874 1.81339 20 3.92594 20H31.9197C34.0323 20 35.7448 18.2874 35.7448 16.1749V3.82511C35.7448 1.71256 34.0323 0 31.9197 0H3.92594Z" fill="#FFCC00"/>
<g clip-path="url(#clip0_442_1899)">
<path d="M2.96729 8.44534C2.96729 8.44534 5.94773 3.25466 6.02926 3.21943C6.11078 3.18421 7.39167 3.5337 8.18272 4.13877L9.78902 3.14967C9.78902 3.14967 9.97555 3.13793 10.0571 3.20769C10.1386 3.27745 10.7321 4.08075 10.9421 4.45304L14.2134 5.55887C14.2134 5.55887 14.4697 5.8614 14.4697 6.2109C14.4697 6.5604 10.721 16.5812 10.721 16.5812C10.721 16.5812 10.1158 16.8492 9.95275 16.7442C9.78971 16.6392 5.66862 15.3013 5.52906 15.0686C5.38951 14.8358 5.17948 14.5215 5.43579 14.0097C5.69211 13.4979 6.79821 10.1921 6.79821 10.1921C6.79821 10.1921 4.73731 9.19131 3.09648 8.74926C3.09579 8.74787 2.85122 8.64772 2.96729 8.44534Z" fill="#FDFEFA"/>
<path d="M11.0263 13.4855C10.8025 12.8148 10.4411 12.2159 9.9292 11.7463C9.42209 11.2807 8.86317 10.8608 8.28283 10.4899C7.06343 9.71074 5.72935 9.16508 4.369 8.68228C4.08989 8.58351 3.81008 8.48474 3.50195 8.3756C3.75689 7.92733 3.99939 7.4915 4.25087 7.06049C4.8395 6.05137 5.4371 5.04708 6.01952 4.0345C6.13835 3.82867 6.23369 3.73266 6.49691 3.8335C7.30455 4.14087 8.01615 4.60157 8.69183 5.1272C9.92298 6.0859 10.6284 7.37822 11.0132 8.85841C11.1237 9.28319 11.1645 9.73008 11.1963 10.1694C11.2377 10.7351 11.2647 11.3042 11.2474 11.8706C11.2315 12.4052 11.1493 12.9377 11.0968 13.471C11.0733 13.4758 11.0498 13.4806 11.0263 13.4855ZM7.18848 5.15759C6.12522 5.0975 5.20497 6.00716 5.20083 7.10124C5.19668 8.1898 6.09759 9.11052 7.24721 9.07391C8.19509 9.04352 9.14781 8.2423 9.15265 7.11368C9.15679 6.07554 8.28629 5.10717 7.18848 5.15759Z" fill="#016185"/>
<path d="M7.33505 10.4532C7.8083 10.7585 8.26566 11.0362 8.70506 11.3401C9.48506 11.8782 10.1552 12.5226 10.4806 13.4385C10.5863 13.7355 10.6098 14.0684 10.6292 14.3875C10.6395 14.5526 10.567 14.6914 10.3203 14.5989C9.21424 14.1852 8.10123 13.788 6.98961 13.3881C6.37127 13.1657 6.34502 13.1242 6.56748 12.5116C6.80929 11.8485 7.06008 11.1902 7.33505 10.4532Z" fill="#DF001B"/>
<path d="M10.9422 4.4531C11.8728 4.8178 12.8884 5.20321 13.8384 5.51196C14.2743 5.65356 14.3558 6.0369 14.2301 6.38433C13.5917 8.15324 12.9492 9.92076 12.3046 11.6876C11.7561 13.1913 11.2034 14.6936 10.6507 16.1952C10.5077 16.584 10.2617 16.7111 9.87343 16.5716C8.54902 16.0971 7.23496 15.5922 5.90226 15.1425C5.38134 14.9664 5.32261 14.5976 5.46562 14.1845C5.68947 13.5373 5.93473 12.8977 6.16894 12.2547C6.41144 11.5888 6.65186 10.9223 6.89643 10.2468C6.79695 10.2046 6.71266 10.1694 6.60834 10.1252C6.45082 10.5548 6.29606 10.9769 6.142 11.3982C5.79172 12.3562 5.43108 13.3108 5.09601 14.275C4.91707 14.7903 5.14091 15.1964 5.66045 15.387C6.1717 15.5749 6.68295 15.7635 7.19489 15.9486C8.07369 16.2663 8.9511 16.5903 9.83474 16.8942C10.3432 17.0689 10.755 16.8638 10.9305 16.3865C11.5281 14.7585 12.1291 13.1326 12.7233 11.5032C13.3409 9.81094 13.9544 8.11801 14.561 6.42232C14.6163 6.26829 14.6391 6.08801 14.6211 5.92639C14.5769 5.52923 14.2985 5.33583 13.9455 5.21012C13.2083 4.94834 12.476 4.67344 11.7402 4.40614C11.3851 4.27697 11.0279 4.15264 10.6714 4.02625L10.9422 4.4531Z" fill="black"/>
<path d="M11.9881 11.1874C12.2638 9.08973 12.1222 7.05352 11.2227 5.06842C11.7912 5.27494 12.3343 5.4718 12.8766 5.66865C13.068 5.73841 13.2587 5.81024 13.4507 5.87793C13.7637 5.98914 13.8224 6.12244 13.7071 6.43879C13.1771 7.8955 12.6493 9.35289 12.1215 10.8103C12.0766 10.936 12.0324 11.0617 11.9881 11.1874Z" fill="black"/>
<path d="M11.5782 9.09666C11.114 7.1606 10.2289 5.5547 8.56738 4.42193C8.98467 4.16982 9.3688 3.93775 9.77642 3.69116C11.0172 5.27496 11.5879 7.06597 11.5782 9.09666Z" fill="#016185"/>
<path d="M8.19926 15.4249C7.88422 15.4298 7.64656 15.2032 7.6431 14.8931C7.63965 14.6071 7.87938 14.3557 8.16679 14.3433C8.42241 14.3322 8.71811 14.6113 8.7264 14.8717C8.73469 15.1438 8.47077 15.4208 8.19926 15.4249Z" fill="black"/>
<path d="M8.95801 15.503C9.02848 15.3075 9.09549 15.1197 9.16458 14.9283C9.49551 15.0451 9.81676 15.1729 10.1463 15.2702C10.3722 15.3366 10.4296 15.4657 10.366 15.6702C10.3011 15.8788 10.1491 15.9485 9.93145 15.8691C9.6019 15.7496 9.27443 15.6225 8.95801 15.503Z" fill="black"/>
<path d="M7.38412 14.2736C7.31572 14.4698 7.25009 14.6577 7.181 14.8566C6.82451 14.7302 6.46248 14.6148 6.1129 14.4698C5.9996 14.4228 5.87593 14.3344 5.97542 14.1451C6.06108 13.9814 6.09287 13.8032 6.3478 13.902C6.68633 14.0339 7.03108 14.1479 7.38412 14.2736Z" fill="black"/>
<path d="M6.31522 8.1069C5.99672 7.79332 6.44164 7.38442 6.44164 7.38442L6.27929 7.22003C5.7107 7.69662 5.91865 8.26853 6.43612 8.52064C6.85686 8.72578 7.1719 8.23469 7.19539 8.09862L7.02889 7.94873C7.02889 7.94873 6.7629 8.58902 6.33801 8.13315L6.31522 8.1069Z" fill="#016185"/>
<path d="M6.46802 6.94514L7.38067 7.81612L7.53681 7.61858L7.15544 7.24421L7.38412 6.90715L7.21693 6.73033L6.96131 7.11505L6.76372 6.90093L7.04352 6.5093L6.87633 6.33179L6.46802 6.94514Z" fill="#016185"/>
<path d="M7.83796 7.11024L7.13257 5.9754L7.30874 5.65906L8.39618 6.25376L8.2663 6.45821L7.963 6.31109L7.76472 6.58875L7.9782 6.89543L7.83796 7.11024Z" fill="#016185"/>
<path d="M7.65348 6.43124L7.35571 5.97467L7.82413 6.19363L7.65348 6.43124Z" fill="#FDFEFA"/>
<path d="M32.4657 13.1996C32.465 13.8413 32.0602 14.4083 31.4494 14.6197C30.7586 14.8587 30.1347 14.7682 29.5682 14.2792C28.9049 13.7059 29.0134 12.4529 29.8508 11.9619C30.5941 11.526 31.6014 11.611 32.159 12.2996C32.3704 12.5614 32.4789 12.8605 32.4657 13.1996ZM31.4184 13.1934C31.4087 13.1395 31.4025 13.0076 31.3596 12.8888C31.2836 12.6767 31.1392 12.5172 30.905 12.4827C30.675 12.4488 30.4587 12.4806 30.3095 12.6912C30.1382 12.9337 30.1423 13.4773 30.3164 13.7169C30.4815 13.9442 30.751 14.0285 31.0204 13.9366C31.3016 13.8413 31.4218 13.6382 31.4184 13.1934Z" fill="#016185"/>
<path d="M31.4184 13.1933C31.4218 13.6388 31.3009 13.8412 31.0211 13.9372C30.7517 14.0291 30.4822 13.9448 30.3171 13.7176C30.143 13.4779 30.1395 12.9336 30.3102 12.6919C30.4587 12.4812 30.6757 12.4494 30.9057 12.4833C31.1399 12.5178 31.2843 12.6774 31.3603 12.8894C31.4025 13.0075 31.4087 13.1395 31.4184 13.1933Z" fill="#FFCC00"/>
<path d="M24.0092 13.1996C24.0085 13.8413 23.6036 14.4083 22.9929 14.6197C22.302 14.8587 21.6782 14.7682 21.1116 14.2792C20.4484 13.7059 20.5569 12.4529 21.3942 11.9619C22.1376 11.526 23.1449 11.611 23.7024 12.2996C23.9138 12.5614 24.0223 12.8605 24.0092 13.1996ZM22.9625 13.1934C22.9528 13.1395 22.9466 13.0076 22.9038 12.8888C22.8278 12.6767 22.6834 12.5172 22.4492 12.4827C22.2191 12.4488 22.0029 12.4806 21.8536 12.6912C21.6823 12.9337 21.6865 13.4773 21.8606 13.7169C22.0257 13.9442 22.2951 14.0285 22.5646 13.9366C22.8451 13.8413 22.9653 13.6382 22.9625 13.1934Z" fill="#016185"/>
<path d="M22.9625 13.1933C22.966 13.6388 22.8451 13.8412 22.5653 13.9372C22.2958 14.0291 22.0264 13.9448 21.8613 13.7176C21.6872 13.4779 21.6837 12.9336 21.8544 12.6919C22.0029 12.4812 22.2198 12.4494 22.4499 12.4833C22.6841 12.5178 22.8285 12.6774 22.9045 12.8894C22.9467 13.0075 22.9529 13.1395 22.9625 13.1933Z" fill="#FFCC00"/>
<path d="M16.2024 14.7709V11.0072H17.1572L18.1942 12.4252L19.1255 11.0072H20.1356V14.7502H19.1407V12.6L18.4056 13.6754L17.8501 13.6699L17.1144 12.6145L17.1247 14.7709H16.2024Z" fill="#016185"/>
<path d="M24.5552 14.7709V11.0072H25.51L26.547 12.4252L27.4783 11.0072H28.489V14.7502H27.4935V12.6L26.7584 13.6754L26.2029 13.6699L25.4678 12.6145L25.4775 14.7709H24.5552Z" fill="#016185"/>
<path d="M16.0332 10.0382V7.45496H16.6882L17.4004 8.42816L18.0395 7.45496H18.7332V10.0244H18.0506V8.54835L17.5455 9.28671L17.1642 9.28326L16.6591 8.55871L16.666 10.0382H16.0332Z" fill="#016185"/>
<path d="M19.9039 10.0002V8.02548H19.0859V7.47706L21.4805 7.45496V8.03515L20.6425 8.02548V10.0002H19.9039Z" fill="#016185"/>
<path d="M21.8352 10.0002H22.4439V8.44954L23.6557 10.0002H24.2643V7.45215L23.6412 7.45491L23.646 8.86327L22.5033 7.45491H21.8352V10.0002Z" fill="#016185"/>
</g>
<defs>
<clipPath id="clip0_442_1899">
<rect width="30" height="16" fill="white" transform="translate(3.73462 3)"/>
</clipPath>
</defs>
</svg>
