<svg width="36" height="20" viewBox="0 0 36 20" fill="none" xmlns="http://www.w3.org/2000/svg">
<path d="M3.82511 0C1.71256 0 0 1.71256 0 3.82511V16.1749C0 18.2874 1.71256 20 3.82511 20H31.8189C33.9314 20 35.644 18.2874 35.644 16.1749V3.82511C35.644 1.71256 33.9314 0 31.8189 0H3.82511Z" fill="black"/>
<g clip-path="url(#clip0_2939_63547)">
<path fill-rule="evenodd" clip-rule="evenodd" d="M17.0842 6.27652C17.0291 6.36809 15.9823 7.53871 14.7593 8.87514L12.5335 11.3104L12.787 11.3475C12.928 11.3698 13.6552 11.3871 14.4045 11.3871C15.9118 11.3871 16.011 11.4094 16.2181 11.7905C16.4583 12.236 16.2909 12.8226 15.87 13.0131C15.6628 13.1047 15.3565 13.1121 12.9941 13.0725C10.0521 13.0255 10.1249 13.0354 9.93314 12.585C9.8494 12.3895 9.83838 12.0949 9.83838 10.3551C9.83838 9.25132 9.85601 7.84806 9.87584 7.2343L9.91331 6.1206L10.094 5.89787C10.2483 5.7073 10.3188 5.67265 10.5921 5.6479C10.8896 5.62068 10.9204 5.63058 11.1276 5.84342L11.3479 6.07111L11.3744 8.1005L11.403 10.1274L13.6949 7.62285C14.9554 6.24435 16.044 5.09106 16.1146 5.05888C16.3151 4.96979 16.6016 4.98216 16.7911 5.09353C17.1459 5.29895 17.298 5.91766 17.0842 6.27652Z" fill="#F16E00"/>
<path fill-rule="evenodd" clip-rule="evenodd" d="M9.16607 13.1097C8.88179 13.7012 8.09286 13.6937 7.80417 13.0973C7.71602 12.9191 7.69839 12.6543 7.67415 11.105L7.64551 9.32064L5.45281 11.8277C3.11246 14.503 3.05075 14.5624 2.62103 14.4535C2.3654 14.3892 2.10756 14.1095 2.03704 13.8224C1.92025 13.3448 1.93567 13.3225 4.34654 10.5729L6.60094 7.99906H4.93053C3.45403 7.99906 3.23807 7.98669 3.06618 7.88769C2.77308 7.7194 2.63425 7.46944 2.63425 7.10316C2.63425 6.73935 2.77308 6.48939 3.06618 6.31862C3.24468 6.21715 3.4937 6.20725 5.92881 6.20973C8.02455 6.2122 8.63718 6.232 8.77601 6.29882C8.87518 6.34585 9.01842 6.46216 9.09776 6.55621L9.241 6.72945L9.25422 9.81067C9.26965 12.7013 9.26303 12.9043 9.16607 13.1097Z" fill="white"/>
<path fill-rule="evenodd" clip-rule="evenodd" d="M21.0387 9.72272L20.9682 9.96279C20.9287 10.094 20.8073 10.5543 20.6973 10.9849C20.5844 11.4155 20.4771 11.7521 20.4546 11.7323C20.432 11.7125 20.2965 11.2596 20.1554 10.725L19.9014 9.7549L19.4076 9.7351L18.9165 9.71777V12.5367H19.5712L19.6107 10.5221L19.8591 11.5294L20.1103 12.5367H20.7904L21.2871 10.5865L21.3238 11.5442L21.3605 12.5045L21.6709 12.5243L21.9813 12.5441V9.72272H21.0387ZM21.3746 10.5023C21.3492 10.5543 21.3322 10.537 21.3294 10.4627C21.3266 10.3959 21.3435 10.3588 21.3689 10.3786C21.3915 10.4008 21.3943 10.4553 21.3746 10.5023Z" fill="white"/>
<path fill-rule="evenodd" clip-rule="evenodd" d="M24.2981 10.5567C23.9708 10.381 23.2737 10.3786 22.9492 10.5518C22.2295 10.9354 22.2606 12.1456 23 12.4847C23.333 12.6356 23.9115 12.6356 24.2389 12.4822C24.9698 12.1382 25.0065 10.9354 24.2981 10.5567ZM23.7422 12.1184C23.3217 12.2001 23.0733 11.9526 23.0733 11.4527C23.0733 11.3042 23.1326 11.1458 23.2257 11.0418C23.5277 10.7052 24.0724 10.8909 24.1429 11.3561C24.1994 11.7298 24.0244 12.0639 23.7422 12.1184Z" fill="white"/>
<path fill-rule="evenodd" clip-rule="evenodd" d="M27.3771 10.7993V12.5367H26.7195V11.7818C26.7195 10.9676 26.68 10.8735 26.3527 10.8735C25.9858 10.8735 25.887 11.0666 25.856 11.8388L25.8277 12.5367H25.2605V10.4256H25.554C25.7995 10.4256 25.8447 10.4479 25.8447 10.5592V10.6904L26.0366 10.5592C26.172 10.4652 26.3357 10.4256 26.5897 10.4256C26.8917 10.4256 26.9848 10.4578 27.1626 10.6137L27.3771 10.7993Z" fill="white"/>
<path fill-rule="evenodd" clip-rule="evenodd" d="M29.3073 12.0243C29.1126 12.2148 28.7372 12.195 28.5482 11.9847C28.2631 11.6679 28.3168 11.6407 29.2452 11.6407H30.0947L30.0495 11.3189C30.0016 10.9527 29.7955 10.6606 29.4879 10.522C29.1803 10.381 28.5566 10.3983 28.266 10.5567C27.7834 10.8116 27.6056 11.5318 27.885 12.0738C27.9922 12.2841 28.1023 12.3782 28.3393 12.4722C28.6893 12.6133 29.0872 12.6356 29.3948 12.5316C29.6685 12.4425 30.0016 12.1579 30.0016 12.0119C30.0016 11.8436 29.4879 11.851 29.3073 12.0243ZM28.4776 11.1135C28.5256 11.0343 28.6018 10.9477 28.6441 10.923C28.7965 10.8339 29.1267 10.8735 29.2706 11.0022C29.5133 11.2125 29.4484 11.2571 28.9038 11.2571C28.3958 11.2571 28.393 11.2571 28.4776 11.1135Z" fill="white"/>
<path fill-rule="evenodd" clip-rule="evenodd" d="M32.4793 10.4899C32.4793 10.5815 31.5395 12.9153 31.421 13.1158C31.2996 13.3187 31.1811 13.3682 30.7973 13.3682C30.5179 13.3682 30.5123 13.3608 30.5123 13.143C30.5123 12.9475 30.5348 12.9203 30.6957 12.9203C31.0739 12.9203 31.0569 12.7223 30.5913 11.5764C30.357 10.9973 30.1793 10.4998 30.1962 10.4751C30.2131 10.4479 30.357 10.4256 30.5123 10.4256C30.7098 10.4256 30.8171 10.4602 30.865 10.537C30.9017 10.5988 31.0231 10.9305 31.1331 11.2745C31.2404 11.6111 31.342 11.8759 31.3617 11.8759C31.3758 11.8635 31.4915 11.5319 31.6157 11.1384L31.8415 10.4256H32.1604C32.3354 10.4256 32.4793 10.4553 32.4793 10.4899Z" fill="white"/>
<path fill-rule="evenodd" clip-rule="evenodd" d="M33.1543 7.02265L33.9755 7.00532L33.9981 6.78011C34.0263 6.47075 33.7469 6.02775 33.428 5.87678C33.1063 5.72581 32.587 5.72581 32.2597 5.87431C31.7489 6.10942 31.5146 6.9088 31.8053 7.41863C31.8759 7.54237 32.048 7.71066 32.1891 7.79233C32.4092 7.92103 32.5137 7.94083 32.9342 7.92103C33.3772 7.89875 33.4506 7.874 33.682 7.67849C34.032 7.37903 34.0235 7.22806 33.6594 7.22806C33.4704 7.22806 33.3349 7.27013 33.2474 7.35675C33.1656 7.43595 33.0216 7.48545 32.8692 7.48545C32.6124 7.48545 32.3359 7.30231 32.3359 7.13402C32.3359 7.05977 32.4911 7.0375 33.1543 7.02265ZM32.5137 6.36186C32.7394 6.16387 32.9483 6.16387 33.1769 6.36186C33.4562 6.60687 33.4054 6.65389 32.8438 6.65389C32.2851 6.65389 32.2343 6.60687 32.5137 6.36186Z" fill="white"/>
<path fill-rule="evenodd" clip-rule="evenodd" d="M31.0203 5.82227C30.8115 5.82227 30.7297 5.84949 30.7297 5.91631C30.7297 5.99551 30.6873 5.98808 30.4926 5.88414C30.2132 5.73565 29.8266 5.72575 29.5444 5.85939C29.0618 6.08708 28.8727 7.03743 29.2198 7.49033C29.5359 7.90611 30.1737 8.03728 30.5293 7.75762C30.6478 7.66357 30.6563 7.671 30.6563 7.88631C30.6563 8.05213 30.6111 8.1437 30.4954 8.21547C30.2894 8.34169 29.9733 8.34416 29.8548 8.22042C29.7984 8.15855 29.6347 8.1239 29.4117 8.1239C29.1069 8.1239 29.0646 8.13875 29.1013 8.23527C29.2904 8.70302 30.2273 8.88863 30.899 8.59165C31.2517 8.43573 31.3138 8.18824 31.3138 6.94338V5.82227H31.0203ZM30.1822 7.42103C29.8633 7.42103 29.708 7.23294 29.708 6.84439C29.708 6.686 29.7588 6.49048 29.8238 6.41129C29.9028 6.31229 30.01 6.27022 30.1822 6.27022C30.5011 6.27022 30.6563 6.45831 30.6563 6.84439C30.6563 7.23294 30.5011 7.42103 30.1822 7.42103Z" fill="white"/>
<path fill-rule="evenodd" clip-rule="evenodd" d="M28.616 7.03244V7.86894H27.9584V7.13638C27.9584 6.55726 27.9358 6.38649 27.8455 6.3073C27.6931 6.17366 27.5012 6.17861 27.298 6.32462C27.1485 6.43104 27.1287 6.50776 27.0977 7.15618L27.0666 7.86894H26.5022V5.82222H26.7929C27.044 5.82222 27.0836 5.84202 27.0836 5.96329C27.0836 6.08456 27.0948 6.08951 27.1767 6.00289C27.4053 5.75045 27.8794 5.68611 28.2519 5.8544C28.3704 5.90884 28.5003 6.00536 28.5398 6.07466C28.5821 6.14148 28.616 6.57211 28.616 7.03244Z" fill="white"/>
<path fill-rule="evenodd" clip-rule="evenodd" d="M26.0139 7.78728C25.9829 7.7452 25.9377 7.33685 25.918 6.88395C25.8813 6.07467 25.8785 6.05734 25.6809 5.92865C25.3846 5.73313 24.648 5.70838 24.3348 5.87915C24.0921 6.01279 23.9481 6.19346 23.9481 6.36175C23.9481 6.51767 24.4674 6.49539 24.6254 6.33453C24.7722 6.18109 25.1306 6.16376 25.2604 6.30235C25.4043 6.45332 25.235 6.57212 24.8004 6.62409C24.1033 6.70576 23.8748 6.88642 23.8748 7.35665C23.8748 7.73778 24.1175 7.9333 24.5916 7.9333C24.8399 7.9333 25.0064 7.8937 25.1334 7.8046C25.2915 7.69818 25.3253 7.69323 25.362 7.77243C25.3902 7.83925 25.5088 7.86895 25.7374 7.86895C25.9885 7.86895 26.0563 7.84915 26.0139 7.78728ZM24.7665 7.53732C24.5916 7.51999 24.569 7.48782 24.569 7.2923C24.569 7.08194 24.5859 7.06461 24.8964 6.99532C25.3451 6.89137 25.3338 6.8889 25.3338 7.07204C25.3338 7.3022 25.0177 7.56206 24.7665 7.53732Z" fill="white"/>
<path fill-rule="evenodd" clip-rule="evenodd" d="M23.6576 6.04508C23.6576 6.31732 23.6463 6.33464 23.4573 6.33464C23.0424 6.33712 22.9267 6.55491 22.9267 7.32954V7.86906H22.272V5.82234H22.5993C22.8759 5.82234 22.9267 5.84214 22.9267 5.94609C22.9267 6.06241 22.9408 6.05993 23.1073 5.91639C23.2061 5.82977 23.3698 5.758 23.4714 5.758C23.6435 5.758 23.6576 5.78027 23.6576 6.04508Z" fill="white"/>
<path fill-rule="evenodd" clip-rule="evenodd" d="M20.8326 5.05753C20.2767 4.92389 19.6614 5.02783 19.303 5.31987C18.9644 5.59953 18.8204 5.93859 18.8176 6.46574C18.8176 7.04486 19.0124 7.45816 19.4103 7.72545C19.6332 7.87394 19.7574 7.90364 20.2315 7.92344C20.9201 7.95066 21.2954 7.80959 21.5974 7.40866C21.7667 7.18097 21.8006 7.06218 21.8232 6.60433C21.8655 5.7505 21.5297 5.2283 20.8326 5.05753ZM20.3387 7.42104C19.7941 7.42104 19.5006 7.08198 19.5006 6.45831C19.5006 6.06233 19.6502 5.7604 19.9211 5.61438C20.5307 5.28275 21.1769 5.73565 21.1769 6.49296C21.1769 7.08198 20.8721 7.42104 20.3387 7.42104Z" fill="white"/>
</g>
<defs>
<clipPath id="clip0_2939_63547">
<rect width="32" height="9.48291" fill="white" transform="translate(2 5)"/>
</clipPath>
</defs>
</svg>
